<?xml version="1.0" encoding="UTF-8" standalone="no"?> <!-- Created with Vectornator for iOS (http://vectornator.io/) --><!DOCTYPE svg PUBLIC "-//W3C//DTD SVG 1.1//EN" "http://www.w3.org/Graphics/SVG/1.1/DTD/svg11.dtd">
<svg style="fill-rule:nonzero;clip-rule:evenodd;stroke-linecap:round;stroke-linejoin:round;" xmlns:vectornator="http://vectornator.io" xmlns:xlink="http://www.w3.org/1999/xlink" xmlns="http://www.w3.org/2000/svg" xml:space="preserve" version="1.1" viewBox="0 0 293 65">
<metadata>
<vectornator:setting key="DimensionsVisible" value="1"/>
<vectornator:setting key="PencilOnly" value="0"/>
<vectornator:setting key="SnapToPoints" value="0"/>
<vectornator:setting key="OutlineMode" value="0"/>
<vectornator:setting key="CMYKEnabledKey" value="0"/>
<vectornator:setting key="RulersVisible" value="1"/>
<vectornator:setting key="SnapToEdges" value="0"/>
<vectornator:setting key="GuidesVisible" value="1"/>
<vectornator:setting key="DisplayWhiteBackground" value="0"/>
<vectornator:setting key="doHistoryDisabled" value="0"/>
<vectornator:setting key="SnapToGuides" value="1"/>
<vectornator:setting key="TimeLapseWatermarkDisabled" value="0"/>
<vectornator:setting key="Units" value="Points"/>
<vectornator:setting key="DynamicGuides" value="0"/>
<vectornator:setting key="IsolateActiveLayer" value="0"/>
<vectornator:setting key="SnapToGrid" value="0"/>
</metadata>
<defs/>
<g id="Untitled" vectornator:layerName="Untitled">
<path d="M164.521+27.8324C163.699+28.6089+162.948+29.395+162.117+30.0853C160.569+31.3707+159.016+32.6521+157.359+33.8026C156.48+34.4133+155.673+35.1281+154.823+35.7821C154.284+36.1966+153.724+36.5828+153.178+36.9887C153.069+37.0704+152.955+37.1685+152.89+37.2851C152.567+37.8651+152.26+38.4542+151.946+39.0392C151.906+39.1128+151.835+39.1767+151.819+39.2535C151.803+39.3319+151.838+39.4207+151.85+39.505C151.913+39.4615+151.993+39.4305+152.037+39.3724C152.28+39.0502+152.471+38.6755+152.76+38.4046C153.344+37.8579+153.941+37.3088+154.605+36.8698C155.167+36.498+155.764+36.1587+156.46+36.0079C157.123+35.8639+157.746+35.8073+158.273+36.2831C158.854+36.808+159.077+37.4536+158.814+38.2453C158.669+38.681+158.62+39.1481+158.516+39.5986C158.46+39.8464+158.381+40.0891+158.312+40.3341C158.561+40.2911+158.815+40.2657+159.059+40.2022C160.41+39.8507+161.772+39.5343+163.103+39.1181C164.166+38.7859+165.177+38.2931+166.233+37.9352C167.507+37.5034+168.593+36.7237+169.77+36.1148C170.067+35.9611+170.313+35.9224+170.51+36.1821C170.723+36.4632+170.553+36.6896+170.334+36.915C169.658+37.6116+168.96+38.2937+168.349+39.0451C167.632+39.9269+166.928+40.8337+166.451+41.8763C166.255+42.3064+166.096+42.7784+166.044+43.2451C165.94+44.191+166.495+44.6977+167.276+44.6458C168.091+44.5917+168.847+44.3851+169.605+44.1034C170.617+43.727+171.601+43.2993+172.534+42.7552C173.271+42.325+174.018+41.9093+174.751+41.4721C175.595+40.969+176.434+40.4572+177.266+39.9351C178.58+39.1108+179.895+38.2872+181.195+37.4401C182.43+36.6349+183.651+35.8078+184.865+34.9712C185.099+34.8098+185.284+34.7929+185.51+34.9386C185.739+35.0857+186.026+35.1784+186.194+35.3753C186.636+35.8941+187.054+36.4382+187.428+37.0074C187.728+37.4626+187.673+37.9743+187.531+38.495C187.157+39.869+186.398+41.067+185.823+42.3488C185.525+43.014+185.144+43.6586+185.2+44.4418C185.224+44.7746+185.337+44.9164+185.673+44.9021C186.42+44.8703+187.11+44.6404+187.81+44.3922C189.257+43.8789+190.461+42.972+191.687+42.0999C192.626+41.4321+193.514+40.6939+194.452+40.0246C195.464+39.302+196.498+38.6082+197.54+37.9292C198.607+37.2338+199.788+36.7874+201+36.4061C201.655+36.1998+202.318+36.1291+202.982+36.2004C203.27+36.2312+203.55+36.4473+203.808+36.6186C203.99+36.7401+204.144+36.9152+204.282+37.0889C204.452+37.302+204.56+37.1957+204.655+37.039C205.15+36.2167+205.601+35.3646+206.14+34.5723C207.059+33.2231+208.024+31.9054+208.983+30.5847C209.719+29.5721+210.52+28.6131+211.339+27.6646C212.186+26.6834+213.043+25.7161+213.956+24.7955C214.702+24.0428+215.379+23.2189+216.15+22.4938C217.019+21.6768+217.951+20.927+218.869+20.1633C219.513+19.6275+220.165+19.1001+220.837+18.6001C221.686+17.9679+222.658+17.5333+223.696+17.4324C224.625+17.3421+225.404+18.2495+225.12+19.1559C224.823+20.1041+224.263+20.8793+223.679+21.6435C222.872+22.6989+222.018+23.7149+221.08+24.6616C219.83+25.9228+218.634+27.2368+217.37+28.4826C216.353+29.4844+215.288+30.4386+214.211+31.3769C213.219+32.2422+212.2+33.0795+211.163+33.8904C209.919+34.862+208.643+35.7911+207.383+36.7415C206.633+37.3075+205.899+37.8947+205.135+38.4424C204.644+38.7952+204.491+39.3447+204.307+39.8457C204.113+40.3734+204.029+40.959+203.997+41.5249C203.93+42.7348+204.874+43.5846+206.04+43.5635C207.009+43.5459+207.904+43.256+208.779+42.8852C210.049+42.347+211.242+41.6669+212.373+40.8768C213.828+39.8602+215.285+38.845+216.748+37.8405C217.686+37.197+218.631+36.5636+219.588+35.9507C219.771+35.8335+220.03+35.7889+220.253+35.7893C220.61+35.7899+220.775+36.0911+220.681+36.4543C220.227+38.2157+219.325+39.7831+218.548+41.4052C218.471+41.5658+218.425+41.7411+218.365+41.9095C218.533+41.8566+218.699+41.7941+218.87+41.7527C219.359+41.6346+219.848+41.5174+220.34+41.4141C221.04+41.2668+221.745+41.139+222.445+40.9901C222.997+40.8725+223.541+40.702+224.098+40.6158C224.847+40.4998+225.551+40.2475+226.256+39.9932C227.083+39.6949+227.841+39.2632+228.568+38.7701C228.716+38.6697+228.935+38.5798+229.093+38.6144C229.279+38.655+229.48+38.8077+229.583+38.9697C229.631+39.045+229.505+39.3265+229.388+39.396C228.602+39.8624+227.813+40.3306+226.992+40.7315C226.263+41.0876+225.478+41.3013+224.675+41.4535C223.978+41.5857+223.295+41.7928+222.601+41.9454C221.922+42.0947+221.235+42.2038+220.556+42.3546C219.822+42.5178+219.102+42.7869+218.361+42.8635C217.739+42.9278+217.534+43.3029+217.252+43.7431C216.643+44.6941+216.089+45.6868+215.238+46.4702C214.581+47.0744+213.826+47.2871+212.982+47.165C212.624+47.1133+212.336+46.8444+212.168+46.498C211.744+45.6277+211.778+44.8472+212.483+44.0975C213.135+43.4046+213.991+43.1036+214.821+42.7686C215.454+42.5135+216.15+42.4191+216.801+42.2023C216.987+42.1402+217.165+41.9266+217.261+41.7386C217.971+40.3354+218.661+38.9217+219.352+37.5088C219.383+37.4453+219.365+37.3578+219.37+37.2815C219.293+37.2951+219.2+37.2848+219.143+37.3258C217.844+38.2719+216.549+39.2205+215.19+40.0823C214.119+40.7608+213.125+41.5611+212.058+42.2447C210.817+43.0392+209.518+43.7506+208.103+44.1841C207.261+44.4423+206.377+44.5827+205.482+44.4953C204.674+44.4165+203.541+43.5589+203.288+42.7629C203+41.8604+202.951+41.023+203.296+40.1522C203.316+40.1018+203.289+40.0325+203.283+39.972C203.236+39.996+203.181+40.0115+203.142+40.0454C202.419+40.6759+201.704+41.3156+200.974+41.939C200.086+42.6985+199.158+43.4149+198.116+43.9444C197.662+44.1751+197.165+44.381+196.614+44.3682C195.783+44.3487+195.144+43.756+195.139+42.9188C195.134+42.1885+195.383+41.5158+195.734+40.8886C195.92+40.5578+196.174+40.2659+196.389+39.951C196.432+39.8879+196.439+39.8003+196.463+39.724C196.4+39.7503+196.328+39.765+196.275+39.8048C195.199+40.6086+194.127+41.4186+193.05+42.2202C192.214+42.8421+191.391+43.4847+190.526+44.0633C189.324+44.867+188.049+45.5052+186.584+45.7279C186.196+45.7869+185.815+45.8342+185.429+45.8332C184.856+45.8316+184.454+45.3783+184.252+44.8396C183.987+44.1338+184.321+43.5552+184.541+42.9768C184.9+42.0326+185.381+41.1348+185.802+40.2136C186.094+39.5749+186.394+38.9384+186.647+38.2841C186.764+37.9823+186.738+37.6308+186.545+37.3526C186.239+36.9145+185.923+36.4787+185.56+36.0898C185.446+35.9677+185.216+35.8455+184.952+36.0371C184.22+36.5682+183.45+37.0468+182.699+37.5524C181.79+38.1651+180.893+38.7972+179.975+39.3962C179.257+39.8643+178.51+40.2862+177.785+40.7438C176.88+41.3154+176.005+41.9385+175.079+42.4735C174.003+43.0959+172.892+43.6609+171.783+44.2249C170.654+44.7986+169.482+45.317+168.241+45.5293C167.552+45.6471+166.776+45.7587+166.074+45.3125C165.484+44.9382+165.164+44.4253+165.1+43.7683C165.022+42.9687+165.245+42.2263+165.594+41.4958C166.092+40.4525+166.696+39.4949+167.499+38.6627C167.566+38.593+167.59+38.4814+167.634+38.3893C167.549+38.4134+167.459+38.426+167.38+38.4633C165.846+39.1919+164.258+39.7884+162.639+40.2896C161.622+40.6048+160.56+40.7816+159.516+41.0069C159.02+41.1137+158.513+41.1704+158.021+41.2908C157.895+41.3216+157.787+41.4958+157.707+41.6261C157.144+42.5343+156.583+43.4567+155.795+44.179C154.91+44.9913+154+45.7956+152.791+46.1422C152.114+46.3364+151.451+46.5392+150.731+46.515C149.843+46.4851+149.088+45.9824+148.772+45.1437C148.616+44.7285+148.784+44.3456+148.924+43.9692C149.299+42.9624+149.662+41.9503+150.077+40.9597C150.395+40.1975+150.786+39.4651+151.14+38.7177C151.177+38.6396+151.189+38.5496+151.213+38.4651C151.107+38.4786+150.98+38.4586+150.901+38.5112C150.565+38.7346+150.255+38.9978+149.915+39.2134C148.678+39.9982+147.448+40.7976+146.183+41.5379C145.092+42.1771+143.94+42.7141+142.846+43.3499C141.655+44.0424+140.398+44.5629+139.082+44.95C138.601+45.0916+138.11+45.206+137.617+45.2967C136.982+45.4134+136.326+45.261+135.804+44.9942C135.303+44.7378+134.862+44.2497+134.771+43.5728C134.661+42.7506+134.875+41.6481+135.353+40.9028C135.38+40.862+135.387+40.8088+135.402+40.7614C135.338+40.7548+135.264+40.7239+135.211+40.7456C134.906+40.8716+134.6+40.9997+134.304+41.1458C133.134+41.7226+131.972+42.3133+130.8+42.8855C129.741+43.4025+128.69+43.9317+127.558+44.2898C126.897+44.499+126.234+44.5332+125.567+44.4859C124.971+44.4436+124.403+43.5628+124.596+42.9695C124.877+42.1036+125.084+41.196+125.712+40.4806C125.759+40.4276+125.756+40.331+125.776+40.2547C125.712+40.2849+125.641+40.3046+125.587+40.3468C124.743+41.0084+123.916+41.6944+123.052+42.3294C122.462+42.7633+121.848+43.1837+121.195+43.5078C120.389+43.9071+119.577+44.3354+118.61+44.2369C117.878+44.1623+117.38+43.4579+117.542+42.7454C117.797+41.6229+118.368+40.689+119.111+39.8377C119.167+39.774+119.161+39.6572+119.185+39.565C119.108+39.5763+119.007+39.5599+118.959+39.6029C117.949+40.5191+116.745+41.105+115.533+41.6961C114.507+42.1966+113.556+42.8537+112.52+43.3301C111.021+44.0199+109.48+44.6232+107.944+45.2309C107.597+45.3681+107.197+45.3692+106.822+45.4366C106.594+45.4775+106.367+45.5609+106.139+45.5634C105.411+45.5713+104.69+45.4967+104.019+45.1849C103.158+44.7845+102.615+44.184+102.423+43.1813C102.286+42.4651+102.498+41.8553+102.573+41.1938C102.662+40.4106+102.884+39.6736+103.13+38.9379C103.3+38.4287+103.452+37.9029+103.703+37.4333C104.143+36.6102+104.357+35.6725+104.968+34.937C105+34.8984+104.983+34.8188+104.989+34.7583C104.926+34.7857+104.862+34.8134+104.798+34.8402C102.95+35.6182+101.089+36.3764+99.1729+36.9584C97.2583+37.5399+95.2977+37.9706+93.3552+38.4592C92.8039+38.5979+92.7813+38.5854+92.8032+39.1626C92.8484+40.3552+92.7388+41.5245+92.2561+42.6259C91.9573+43.3077+91.626+43.9797+91.2535+44.6238C90.5183+45.8949+89.5528+46.9889+88.4559+47.9542C87.6127+48.6963+86.7163+49.3717+85.7198+49.917C84.8635+50.3856+84.0205+50.8668+83.1008+51.2073C81.9087+51.6485+80.7007+52.0084+79.4579+52.297C77.4216+52.7698+75.3663+52.7288+73.3174+52.6481C72.2731+52.607+71.2193+52.418+70.178+52.1736C69.1791+51.939+68.1997+51.6806+67.2292+51.348C65.9059+50.8946+64.8877+50.0898+64.093+48.9548C63.4792+48.0781+63.3222+47.0971+63.4455+46.0802C63.5037+45.6004+63.6577+45.1072+63.9665+44.6915C64.9201+43.4075+66.1372+42.5318+67.6344+41.9146C68.9096+41.3888+70.2186+41.0152+71.5302+40.6402C72.3402+40.4086+73.1977+40.3424+74.0347+40.2062C74.3504+40.1549+74.6773+40.1477+74.9814+40.0593C75.1706+40.0043+75.3776+39.8706+75.4896+39.7111C76.582+38.1556+77.6594+36.5895+78.7343+35.0218C79.593+33.7695+80.4357+32.5062+81.2976+31.2561C82.3177+29.7766+83.35+28.3055+84.3782+26.8317C85.3099+25.4961+86.2438+24.1622+87.1755+22.8267C88.2037+21.3528+89.2293+19.8771+90.2582+18.4037C90.8882+17.5017+91.519+16.6001+92.1579+15.7044C92.2603+15.5608+92.4115+15.4529+92.5328+15.3217C92.6929+15.1487+92.8593+15.0074+93.0852+15.2123C93.2842+15.3928+93.4654+15.5455+93.2153+15.8661C92.8146+16.3795+92.4825+16.9459+92.1139+17.4848C91.0414+19.053+89.9693+20.6214+88.8891+22.1843C87.8673+23.6626+86.8405+25.1375+85.8067+26.6074C84.9289+27.8554+84.0373+29.0936+83.1543+30.3379C83.0948+30.4217+83.0383+30.5163+83.0158+30.614C83.0043+30.664+82.9154+30.7995+83.151+30.7597C83.8092+30.6486+84.4875+30.6541+85.144+30.5361C85.7098+30.4344+86.2892+30.4807+86.8507+30.2955C87.2304+30.1703+87.6585+30.1942+88.0642+30.1454C89.7813+29.9389+91.4563+29.5478+93.1284+29.1034C94.6998+28.6858+96.206+28.1199+97.6794+27.4565C98.679+27.0065+99.6448+26.4817+100.633+26.0045C101.433+25.6179+102.164+25.1288+102.858+24.5791C103.313+24.2184+103.792+23.8819+104.212+23.483C105.146+22.5947+105.897+21.5782+106.351+20.3488C107.136+18.2215+106.172+16.3258+104.502+15.2624C103.634+14.7098+102.656+14.4225+101.663+14.1857C100.91+14.0062+100.159+13.8178+99.403+13.6537C99.0699+13.5815+98.7269+13.5464+98.3864+13.5179C97.7351+13.4633+97.0754+13.4707+96.4321+13.3701C95.512+13.2262+94.5912+13.2365+93.6696+13.2531C92.9946+13.2653+92.3175+13.3093+91.6469+13.3874C90.716+13.4957+89.7832+13.6133+88.8642+13.7931C87.9013+13.9815+86.945+14.2178+86.0014+14.4879C84.7076+14.8581+83.4605+15.3696+82.2585+15.9688C81.9005+16.1473+81.7756+15.985+81.6048+15.7941C81.3908+15.5547+81.5749+15.3806+81.7521+15.2487C81.9693+15.087+82.2023+14.9399+82.4452+14.8205C83.9763+14.0678+85.6093+13.589+87.2413+13.1301C88.0741+12.896+88.9608+12.859+89.8184+12.7062C90.7368+12.5426+91.6733+12.5355+92.5869+12.4087C93.6954+12.2549+94.793+12.3048+95.8884+12.3312C96.8861+12.3552+97.8755+12.6283+98.8751+12.6958C99.9008+12.7651+100.883+13.0153+101.869+13.2547C103.143+13.5641+104.432+13.9088+105.469+14.7444C106.428+15.5167+107.176+16.4681+107.428+17.7477C107.722+19.2435+107.476+20.5817+106.659+21.8888C106.128+22.739+105.571+23.5491+104.828+24.2056C103.272+25.5813+101.56+26.7293+99.6664+27.6009C97.919+28.405+96.1789+29.2197+94.3259+29.766C93.3034+30.0675+92.2872+30.3775+91.2319+30.5562C90.4053+30.6962+89.5943+30.9272+88.769+31.0769C88.2813+31.1654+87.7789+31.1705+87.2838+31.2202C86.8993+31.2588+86.5157+31.3064+86.1324+31.3552C86.0728+31.3628+86.0168+31.3979+85.9591+31.4203C86.0223+31.4836+86.0834+31.5989+86.1491+31.6016C86.6059+31.6205+86.9879+31.8214+87.3897+32.0153C88.8937+32.741+90.1181+33.7888+91.1275+35.1087C91.6144+35.7454+92.0594+36.3938+92.2705+37.1856C92.3802+37.5967+92.5201+37.6105+93.0081+37.5273C94.7419+37.232+96.3994+36.65+98.0952+36.2172C99.551+35.8456+100.936+35.291+102.351+34.8215C103.425+34.4653+104.45+33.9537+105.48+33.4753C105.705+33.3707+105.893+33.1366+106.04+32.9225C106.686+31.9866+107.297+31.0265+107.947+30.0935C108.688+29.0287+109.496+28.0184+110.402+27.0823C111.13+26.3293+111.785+25.5058+112.499+24.7374C113.433+23.731+114.376+22.7328+115.344+21.7592C116.307+20.7909+117.32+19.8748+118.486+19.1492C119.305+18.6395+120.169+18.2691+121.17+18.3405C121.737+18.381+122.127+18.7932+122.177+19.3705C122.25+20.2009+121.777+20.8335+121.38+21.453C120.693+22.524+119.883+23.5119+118.983+24.4229C118.285+25.1294+117.642+25.8901+116.936+26.5876C115.654+27.8529+114.306+29.0425+112.81+30.0567C111.9+30.6739+111.024+31.3443+110.102+31.9427C109.316+32.4524+108.487+32.8953+107.675+33.3641C107.333+33.5616+106.926+33.6901+106.656+33.958C106.351+34.2605+106.149+34.6751+105.932+35.0574C104.996+36.6999+104.312+38.4547+103.716+40.2401C103.517+40.8361+103.478+41.4896+103.404+42.1213C103.372+42.391+103.335+42.656+103.361+42.951C103.44+43.8182+104.109+44.338+104.918+44.4855C106.239+44.7263+107.508+44.4506+108.726+43.9247C110.129+43.3184+111.555+42.755+112.918+42.0681C114.587+41.2271+116.22+40.3106+117.831+39.3618C118.757+38.8161+119.604+38.1356+120.495+37.5287C120.804+37.3179+121.144+37.1524+121.463+36.9543C121.719+36.7947+121.934+36.8004+122.155+37.0288C122.341+37.2215+122.377+37.378+122.179+37.5877C121.728+38.0669+121.297+38.5648+120.847+39.0457C120.204+39.7339+119.707+40.5239+119.22+41.3228C118.927+41.8032+118.651+42.2757+118.496+42.8377C118.406+43.1641+118.496+43.2457+118.717+43.2785C118.923+43.309+119.155+43.2793+119.356+43.2148C120.563+42.8275+121.631+42.1842+122.636+41.4211C123.484+40.7777+124.352+40.1618+125.199+39.5185C125.545+39.2559+125.862+38.9545+126.189+38.6682C126.567+38.3379+126.942+38.0035+127.32+37.6732C127.655+37.3806+128.043+37.4902+128.248+37.8794C128.32+38.0172+128.266+38.0374+128.215+38.1258C128.06+38.3948+127.97+38.713+127.775+38.9455C127.135+39.7105+126.706+40.6029+126.195+41.4463C125.878+41.9707+125.72+42.5536+125.612+43.147C125.576+43.3439+125.601+43.5583+125.935+43.5677C126.547+43.5848+127.106+43.4031+127.674+43.2228C129.185+42.7432+130.516+41.8834+131.942+41.2229C132.917+40.771+133.839+40.2033+134.882+39.9016C135.002+39.8669+135.128+39.8483+135.242+39.8005C135.671+39.6211+136.086+39.5345+136.426+39.0774C137.29+37.9192+138.297+36.8609+139.64+36.2258C140.232+35.9461+140.848+35.7296+141.534+35.7709C142.136+35.8071+142.536+36.1062+142.824+36.5961C143.011+36.9124+142.906+37.3347+142.615+37.6712C141.795+38.6192+140.712+39.1388+139.561+39.5284C138.676+39.8275+137.772+40.0664+136.88+40.3444C136.75+40.3849+136.586+40.4663+136.532+40.5754C136.287+41.0757+136.097+41.6033+135.846+42.1004C135.61+42.5674+135.688+43.0628+135.751+43.5187C135.787+43.779+136.123+44.1421+136.379+44.1948C136.785+44.2784+137.237+44.6091+137.669+44.2288C138.988+44.2164+140.137+43.6052+141.296+43.1092C142.436+42.6211+143.496+41.9411+144.582+41.3291C145.381+40.8786+146.171+40.412+146.954+39.9343C147.884+39.3672+148.81+38.7938+149.722+38.1982C150.465+37.7129+151.183+37.1908+151.913+36.685C152.374+36.3651+152.59+35.8518+152.877+35.4059C153.84+33.9102+154.732+32.3681+155.72+30.8888C156.244+30.1031+156.925+29.4239+157.504+28.6722C158.255+27.6953+159.098+26.8056+159.969+25.9372C160.514+25.3942+160.989+24.7797+161.544+24.249C162.561+23.2783+163.608+22.3392+164.654+21.4001C165.268+20.8487+165.888+20.3012+166.537+19.7912C167.238+19.24+167.939+18.6728+168.708+18.2297C169.276+17.9017+169.922+17.6503+170.619+17.6725C171.234+17.6921+171.493+17.9838+171.535+18.5806C171.606+19.5659+171.128+20.3387+170.593+21.0747C170.062+21.8055+169.474+22.4955+168.893+23.1885C167.535+24.8077+166.058+26.3166+164.521+27.8324M90.9214+43.357C90.9532+43.2806+90.9823+43.203+91.017+43.1279C91.5751+41.92+91.9202+40.665+91.8601+39.3205C91.8429+38.9361+91.6867+38.7951+91.3278+38.8661C90.689+38.9925+90.0577+39.1652+89.4146+39.2589C88.3119+39.4197+87.2029+39.5373+86.0958+39.6673C85.646+39.7201+85.1776+39.697+84.7471+39.8155C83.8529+40.0616+82.9262+40.014+82.0247+40.1915C81.4317+40.3083+80.8125+40.2903+80.2058+40.3407C79.7544+40.3782+79.2965+40.3915+78.855+40.4819C78.1589+40.6244+77.4626+40.7174+76.7523+40.7497C76.2562+40.7722+75.7548+40.7982+75.4679+41.3579C75.2388+41.8048+74.9147+42.2038+74.625+42.6187C73.4869+44.2485+72.3474+45.8775+71.2025+47.5026C71.1014+47.6461+70.9773+47.7986+70.8272+47.8747C70.7052+47.9366+70.4902+47.9497+70.3826+47.8809C70.0413+47.6626+70.0499+47.4664+70.3638+47.0156C71.5959+45.2463+72.8279+43.477+74.0626+41.7095C74.1678+41.5588+74.293+41.4222+74.4073+41.2777C74.4396+41.2368+74.4661+41.1912+74.4953+41.1478C74.4321+41.119+74.3617+41.0559+74.3069+41.0674C74.0213+41.1272+73.7436+41.2339+73.4561+41.2734C71.957+41.4798+70.5015+41.8695+69.0769+42.3596C67.6111+42.8639+66.212+43.4919+65.1496+44.7044C64.4914+45.4558+64.1934+46.3241+64.4015+47.2553C64.6999+48.5904+65.5992+49.5008+66.8056+50.1362C67.8521+50.6874+68.9928+50.9191+70.1204+51.1969C70.6977+51.3391+71.276+51.4714+71.8846+51.4872C72.4305+51.5013+72.9724+51.7222+73.5171+51.7266C75.4138+51.7419+77.3069+51.8027+79.1886+51.3599C80.5513+51.0392+81.8951+50.6948+83.1847+50.153C84.8634+49.4478+86.3917+48.484+87.7647+47.3005C89.0308+46.209+90.068+44.9103+90.9214+43.357M81.0635+39.2663C81.5162+39.2456+81.9648+39.2177+82.4181+39.1607C83.183+39.0644+83.9492+38.9621+84.716+38.8772C85.7361+38.7642+86.7532+38.6548+87.7644+38.4703C88.5006+38.3361+89.2536+38.2966+89.9951+38.1877C90.3869+38.1301+90.7692+37.9483+91.1577+37.9423C91.6142+37.9353+91.5131+37.5971+91.4378+37.4601C91.0458+36.7471+90.6819+35.9941+90.1588+35.383C89.0787+34.1211+87.803+33.114+86.1893+32.5385C85.1252+32.1591+84.0497+31.8541+82.9501+31.6399C82.5607+31.5641+82.1608+31.722+81.8943+32.1202C81.4463+32.7895+80.9413+33.4204+80.4834+34.0834C79.2137+35.9221+77.9561+37.769+76.6934+39.6124C76.6602+39.6609+76.6241+39.7073+76.5894+39.7546C76.6497+39.7707+76.7114+39.8045+76.7702+39.8C77.2878+39.7601+77.8113+39.7495+78.3208+39.6601C79.0621+39.5299+79.7989+39.3932+80.5554+39.3971C80.7023+39.3979+80.8494+39.3557+81.0635+39.2663M224.171+18.6116C223.812+18.3491+223.393+18.4122+223.05+18.5498C222.457+18.7878+221.88+19.0919+221.343+19.44C219.593+20.5748+218.105+22.0346+216.561+23.4207C216.025+23.9026+215.594+24.5002+215.081+25.0113C214.021+26.0675+212.99+27.1476+212.048+28.3127C211.502+28.9886+210.872+29.5997+210.356+30.2965C209.222+31.8277+208.136+33.3948+207.031+34.9473C206.699+35.413+206.362+35.8748+206.042+36.3485C205.99+36.4252+206.016+36.5548+206.007+36.66C206.086+36.6197+206.175+36.5916+206.242+36.5372C206.997+35.9292+207.739+35.3061+208.503+34.7095C209.156+34.1988+209.849+33.738+210.495+33.218C211.572+32.3508+212.645+31.4765+213.683+30.5634C214.838+29.5474+215.976+28.5089+217.078+27.4364C218.614+25.9428+220.145+24.4423+221.492+22.7685C222.1+22.0124+222.756+21.2921+223.327+20.5089C223.727+19.9594+224.199+19.419+224.171+18.6116M169.852+20.4893C169.931+20.3656+170.025+20.2489+170.086+20.1169C170.276+19.7043+170.607+19.3533+170.597+18.851C170.592+18.6273+170.496+18.5575+170.323+18.6171C169.913+18.758+169.477+18.87+169.118+19.0979C168.438+19.5289+167.778+20.0009+167.158+20.5141C166.102+21.3883+165.071+22.2943+164.052+23.2119C163.215+23.9657+162.401+24.7457+161.597+25.5343C161.224+25.9002+160.899+26.3153+160.55+26.7061C159.792+27.5544+159.044+28.4106+158.273+29.2468C157.343+30.256+156.58+31.389+155.815+32.5197C155.309+33.2666+154.832+34.0325+154.345+34.7925C154.314+34.842+154.316+34.9133+154.302+34.9744C154.362+34.9566+154.435+34.9548+154.479+34.9184C154.781+34.6706+155.069+34.4058+155.375+34.1646C156.385+33.3702+157.402+32.586+158.413+31.793C159.476+30.9591+160.574+30.1638+161.585+29.2709C162.763+28.2306+163.878+27.1168+164.994+26.008C165.777+25.23+166.525+24.4159+167.271+23.6015C167.963+22.8451+168.639+22.0733+169.306+21.2943C169.495+21.0736+169.627+20.8037+169.852+20.4893M115.533+23.0376C115.188+23.3379+114.824+23.62+114.503+23.9433C114.149+24.2985+113.841+24.6984+113.501+25.0668C112.826+25.7959+112.139+26.5134+111.465+27.2423C111.109+27.6271+110.749+28.0104+110.424+28.4212C109.669+29.3778+108.932+30.3485+108.194+31.3184C107.977+31.6042+107.778+31.9045+107.58+32.2041C107.552+32.2461+107.576+32.3226+107.577+32.3831C107.624+32.3644+107.676+32.3525+107.718+32.3259C108.322+31.9481+108.937+31.5865+109.524+31.1849C110.468+30.5398+111.37+29.8315+112.333+29.2162C113.597+28.408+114.677+27.3815+115.78+26.3886C116.991+25.2986+118.071+24.0749+119.119+22.8217C119.858+21.9374+120.566+21.0408+121.097+20.0158C121.382+19.4646+121.246+19.261+120.631+19.2838C120.526+19.2877+120.412+19.2921+120.316+19.3314C119.5+19.6672+118.709+20.0482+118.048+20.6543C117.662+21.0083+117.253+21.3388+116.873+21.6992C116.438+22.1118+116.023+22.5458+115.533+23.0376M199.828+41.6134C200.03+41.4558+200.253+41.3186+200.432+41.1373C201.452+40.0979+202.628+39.2433+203.748+38.3233C203.776+38.3009+203.776+38.199+203.749+38.1644C203.581+37.9458+203.442+37.6616+203.217+37.5409C202.914+37.3783+202.515+37.2155+202.206+37.2809C201.542+37.4212+200.847+37.4933+200.238+37.8475C199.188+38.458+198.189+39.1076+197.427+40.0997C196.844+40.8583+196.39+41.6644+196.08+42.5567C195.983+42.836+196.103+43.1505+196.323+43.3073C196.481+43.4202+196.791+43.4411+196.982+43.3684C198.009+42.9781+198.925+42.3927+199.828+41.6134M155.233+40.8758C155.664+40.7863+156.092+40.6799+156.527+40.6118C157.063+40.5277+157.266+40.4127+157.407+39.8994C157.584+39.2567+157.82+38.6359+157.907+37.9587C157.996+37.2623+157.594+36.7097+156.914+36.8611C156.535+36.9454+156.131+37.0547+155.816+37.2674C155.024+37.8022+154.233+38.3542+153.525+38.9915C152.967+39.493+152.519+40.1207+152.051+40.7142C151.765+41.0756+151.527+41.4751+151.28+41.8654C151.222+41.9576+151.214+42.0819+151.183+42.1914C151.273+42.1552+151.363+42.1205+151.452+42.0826C151.868+41.9043+152.273+41.6901+152.703+41.554C153.494+41.3037+154.299+41.0993+155.233+40.8758M153.556+42.284C152.949+42.4892+152.309+42.6309+151.742+42.9169C151.145+43.2183+150.597+43.6314+150.067+44.0461C149.729+44.311+149.691+44.7645+149.847+45.1156C149.983+45.4202+150.33+45.6144+150.713+45.5665C151.176+45.5086+151.639+45.44+152.097+45.3489C153.335+45.1024+154.267+44.3152+155.138+43.4888C155.675+42.9797+156.069+42.3202+156.526+41.7273C156.56+41.6836+156.584+41.633+156.613+41.5856C156.552+41.5725+156.485+41.5371+156.429+41.5499C155.961+41.6568+155.495+41.7737+155.027+41.8854C154.56+41.9972+154.091+42.1066+153.556+42.284M212.838+45.3688C212.895+46.199+213.128+46.4571+214.041+46.1066C214.571+45.9034+214.918+45.4791+215.245+45.055C215.615+44.5747+215.93+44.052+216.268+43.5471C216.32+43.4705+216.365+43.3902+216.414+43.3116C216.309+43.3125+216.195+43.2874+216.101+43.3189C215.613+43.4811+215.104+43.6082+214.651+43.8413C213.969+44.1922+213.198+44.4552+212.838+45.3688M139.675+37.2545C139.255+37.5843+138.828+37.9044+138.42+38.2476C138.183+38.4473+137.973+38.6807+137.761+38.9079C137.729+38.9412+137.728+39.0445+137.756+39.0797C137.788+39.1186+137.892+39.15+137.927+39.1272C138.511+38.7447+139.236+38.7334+139.835+38.4191C140.499+38.0707+141.249+37.8458+141.738+37.209C141.947+36.9376+141.965+36.9185+141.622+36.7955C141.466+36.7393+141.268+36.6815+141.124+36.7292C140.677+36.8773+140.246+37.0756+139.675+37.2545ZM172.367+33.2644C172.552+33.2928+172.716+33.3346+172.852+33.4214C173.078+33.5662+173.07+33.8214+172.955+33.9959C172.831+34.1834+172.637+34.3375+172.347+34.1752C171.822+33.8809+171.813+33.8216+172.367+33.2644Z" opacity="1" fill="#000000"/>
</g>
</svg>
