<?xml version="1.0" encoding="UTF-8" standalone="no"?> <!-- Created with Vectornator for iOS (http://vectornator.io/) --><!DOCTYPE svg PUBLIC "-//W3C//DTD SVG 1.1//EN" "http://www.w3.org/Graphics/SVG/1.1/DTD/svg11.dtd">
<svg style="fill-rule:nonzero;clip-rule:evenodd;stroke-linecap:round;stroke-linejoin:round;" xmlns:vectornator="http://vectornator.io" xmlns:xlink="http://www.w3.org/1999/xlink" xmlns="http://www.w3.org/2000/svg" xml:space="preserve" version="1.1" viewBox="0 0 293 65">
<metadata>
<vectornator:setting key="DimensionsVisible" value="1"/>
<vectornator:setting key="PencilOnly" value="0"/>
<vectornator:setting key="SnapToPoints" value="0"/>
<vectornator:setting key="OutlineMode" value="0"/>
<vectornator:setting key="CMYKEnabledKey" value="0"/>
<vectornator:setting key="RulersVisible" value="1"/>
<vectornator:setting key="SnapToEdges" value="0"/>
<vectornator:setting key="GuidesVisible" value="1"/>
<vectornator:setting key="DisplayWhiteBackground" value="0"/>
<vectornator:setting key="doHistoryDisabled" value="0"/>
<vectornator:setting key="SnapToGuides" value="1"/>
<vectornator:setting key="TimeLapseWatermarkDisabled" value="0"/>
<vectornator:setting key="Units" value="Points"/>
<vectornator:setting key="DynamicGuides" value="0"/>
<vectornator:setting key="IsolateActiveLayer" value="0"/>
<vectornator:setting key="SnapToGrid" value="1"/>
</metadata>
<defs/>
<g id="Untitled" vectornator:layerName="Untitled">
<path d="M97.1236+12.7351C95.8439+12.686+94.6255+12.7246+93.436+12.5572C92.6382+12.4449+91.8408+12.5603+91.0674+12.4232C90.0058+12.2351+88.9316+12.4301+87.8917+12.2672C86.7516+12.0886+85.62+12.2335+84.4903+12.1421C80.5396+11.8225+76.5825+12.0996+72.6304+11.9854C72.1256+11.9709+71.7984+12.1491+71.5181+12.5112C71.0299+13.142+70.5408+13.7723+70.0618+14.4101C69.501+15.157+68.9566+15.9163+68.3942+16.6619C67.1669+18.2889+65.9656+19.937+64.6938+21.5287C62.5431+24.2205+60.7121+27.1333+58.7814+29.9764C57.9985+31.1293+57.3729+32.3878+56.6302+33.5696C55.5597+35.273+54.5724+37.0226+53.7159+38.8399C53.1756+39.9863+52.7359+41.1808+52.2728+42.3622C52.165+42.6375+52.1367+42.9461+52.0915+43.2423C52.0795+43.3213+52.1405+43.4114+52.168+43.4964C52.2509+43.4596+52.3552+43.4434+52.4135+43.383C53.382+42.3774+54.445+41.4645+55.2391+40.2904C55.6894+39.6247+56.2793+39.0548+56.7845+38.4242C57.4899+37.5436+58.1703+36.6429+58.8701+35.7576C59.4704+34.9981+60.0959+34.2582+60.6865+33.4913C61.4139+32.5466+62.0924+31.5636+62.8372+30.6332C63.494+29.8127+64.21+29.0392+64.906+28.2503C65.157+27.9658+65.5123+27.8723+65.8606+27.9049C66.5551+27.9697+67.1982+28.2216+67.7606+28.637C68.3755+29.0912+68.4449+29.8272+68.1494+30.5768C67.7757+31.5246+67.2815+32.4241+66.8676+33.357C66.4901+34.2081+66.0936+35.0557+65.9212+35.9818C65.7841+36.7178+66.1757+37.1622+66.95+37.1693C67.473+37.1741+67.9554+37.0256+68.4177+36.8027C69.3788+36.3391+70.3526+35.8979+71.2896+35.3893C71.9958+35.006+72.664+34.5485+73.3292+34.0948C74.4794+33.3102+75.6118+32.4994+76.7563+31.7063C77.4587+31.2195+78.2036+31.1663+79.0012+31.4732C79.4813+31.6579+79.6197+32.0894+79.7348+32.484C79.8327+32.8201+79.7824+33.2148+79.7325+33.5745C79.6729+34.0039+79.677+34.0883+80.0648+34.0679C80.7071+34.034+81.3414+34.0941+81.9978+33.9634C82.8377+33.7961+83.6407+33.5374+84.4434+33.2746C85.2229+33.0193+85.9524+32.6433+86.6368+32.1714C87.3541+31.6768+88.1066+31.2306+88.8645+30.7998C89.0519+30.6933+89.3327+30.6678+89.5476+30.7133C89.8415+30.7754+89.9396+31.1618+89.7616+31.4428C89.5264+31.8141+89.2687+32.1709+89.0258+32.5373C88.986+32.5973+88.9727+32.6748+88.9471+32.7441C89.0135+32.732+89.0885+32.7358+89.1449+32.7053C89.5865+32.4671+90.0333+32.2367+90.461+31.9754C90.914+31.6987+91.4087+31.6884+91.9014+31.7289C92.5336+31.7809+93.1198+32.5546+93.1519+33.3029C93.165+33.6104+93.2023+33.9169+93.2286+34.2238C93.5068+34.1257+93.7887+34.0367+94.0627+33.9279C95.5582+33.3343+97.0508+32.733+98.5467+32.1402C99.1789+31.8897+99.8151+31.6489+100.453+31.4135C100.624+31.3504+100.807+31.3026+100.987+31.2857C101.191+31.2667+101.376+31.2398+101.469+31.5509C101.541+31.7948+101.534+31.9253+101.375+32.1159C100.677+32.9537+99.9814+33.799+99.5528+34.8174C99.3594+35.2768+99.1944+35.7494+99.0422+36.2243C98.9576+36.4884+99.2488+36.847+99.559+36.8693C100.033+36.9035+100.484+36.8165+100.946+36.671C102.844+36.0723+104.497+35.0239+106.156+33.9636C107.961+32.8091+109.846+31.7946+111.905+31.1503C112.342+31.0134+112.795+30.8871+113.249+30.8499C114.175+30.7738+114.976+31.066+115.559+31.8326C115.734+32.0633+115.837+33.228+115.645+33.4147C115.512+33.5446+115.238+33.6635+115.09+33.6103C114.905+33.5438+114.738+33.317+114.651+33.1206C114.551+32.8949+114.714+32.624+114.497+32.3711C114.025+31.8235+113.426+31.9473+112.898+32.0859C111.226+32.5243+110.154+33.652+109.569+35.2517C109.283+36.0342+109.526+36.7497+110.15+36.8513C110.642+36.9315+111.176+36.9085+111.668+36.8112C113.4+36.4686+114.993+35.7317+116.563+34.9556C118.498+33.9988+120.414+33.0038+122.346+32.04C123.381+31.5237+124.409+30.9901+125.515+30.631C126.379+30.3505+126.805+30.2531+127.479+30.5709C127.922+30.7799+128.273+31.2185+128.612+31.6018C128.898+31.9256+128.877+31.9523+129.199+31.6611C129.59+31.3083+129.984+30.9593+130.388+30.6215C130.632+30.4173+130.96+30.4286+131.145+30.646C131.338+30.8726+131.335+31.1102+131.134+31.3469C130.967+31.5431+130.83+31.7645+130.662+31.9589C129.972+32.7546+129.225+33.5064+128.601+34.3502C128.217+34.8694+127.973+35.5096+127.759+36.1277C127.661+36.4097+127.621+36.8213+127.988+37.0454C128.339+37.2603+128.709+37.2047+129.077+37.0795C130.26+36.6776+131.287+35.9867+132.315+35.3056C133.57+34.4743+134.787+33.5855+136.051+32.7703C136.75+32.32+137.3+31.8186+137.661+31.0275C138.389+29.4315+139.426+28.0134+140.439+26.5816C141.823+24.6259+143.448+22.8918+145.197+21.2784C146.648+19.9394+148.183+18.6766+149.87+17.6448C150.719+17.1258+151.642+16.6381+152.716+16.708C153.302+16.7461+153.994+17.3019+153.812+18.2614C153.635+19.1985+153.164+19.9529+152.576+20.6174C151.465+21.8736+150.311+23.1004+149.091+24.2494C148.023+25.2549+146.848+26.1486+145.703+27.0703C144.586+27.97+143.464+28.8663+142.311+29.7205C141.193+30.5494+140.056+31.3572+138.883+32.1056C138.33+32.4583+137.984+32.8914+137.808+33.4985C137.582+34.2787+137.449+35.0726+137.755+35.8493C138.049+36.5953+138.639+37.002+139.431+37.1751C140.857+37.4864+142.089+36.8948+143.319+36.3621C144.642+35.7888+145.867+35.018+147.064+34.2163C147.744+33.7605+148.365+33.2169+149.03+32.7357C149.447+32.4336+149.964+32.6214+149.943+33.0693C149.933+33.2676+149.746+33.5021+149.574+33.6396C149.047+34.0623+148.493+34.4518+147.942+34.8438C146.688+35.7357+145.397+36.5632+143.984+37.1887C142.979+37.6331+141.975+38.0183+140.877+38.2345C139.832+38.4402+138.942+38.2326+138.09+37.7447C137.136+37.1982+136.573+36.3503+136.577+35.2144C136.579+34.7936+136.444+34.3495+136.709+33.9461C136.748+33.8867+136.691+33.7647+136.679+33.6717C136.582+33.7086+136.472+33.7276+136.389+33.7852C135.835+34.1693+135.298+34.5784+134.735+34.948C133.294+35.8944+131.918+36.9485+130.358+37.7024C129.71+38.0155+129.034+38.2498+128.282+38.2061C127.527+38.1623+126.788+37.605+126.72+36.8561C126.656+36.1524+126.702+35.4425+127.182+34.8442C127.239+34.7725+127.229+34.646+127.249+34.5449C127.148+34.5791+127.028+34.5888+126.949+34.6512C125.625+35.6988+124.207+36.5798+122.585+37.087C122.058+37.2521+121.496+37.2772+121.007+36.9743C120.408+36.6032+120.265+35.8541+120.648+35.0715C120.859+34.6401+121.161+34.2537+121.417+33.8438C121.455+33.7842+121.463+33.7064+121.484+33.637C121.418+33.6531+121.345+33.6561+121.286+33.6872C120.542+34.0831+119.807+34.4949+119.057+34.879C118.026+35.4071+116.99+35.928+115.946+36.4283C114.652+37.0476+113.316+37.5929+111.913+37.8694C111.182+38.0136+110.355+38.0595+109.636+37.7364C109.219+37.5491+108.767+37.2297+108.563+36.8461C108.393+36.5285+108.281+36.1093+108.407+35.6058C108.591+34.865+108.736+34.1654+109.286+33.6039C109.327+33.5625+109.286+33.442+109.284+33.3583C109.217+33.3639+109.137+33.3472+109.087+33.3785C108.032+34.0332+106.973+34.6803+105.932+35.3555C104.454+36.3143+102.933+37.1896+101.231+37.6859C100.538+37.888+99.8393+38.063+99.0958+37.7674C98.221+37.4196+97.7876+36.7475+98.0314+35.8961C98.3086+34.928+98.6606+33.99+99.2741+33.1726C99.3124+33.1216+99.3132+33.0425+99.3314+32.9765C99.2629+32.9947+99.1914+33.0056+99.1263+33.0322C97.1727+33.8282+95.2288+34.6508+93.202+35.2503C92.9277+35.3314+92.7198+35.467+92.603+35.7279C92.1984+36.6322+91.4466+37.2196+90.663+37.7431C90.0673+38.1412+89.333+38.2622+88.6329+38.3287C87.5987+38.427+87.0658+38.024+86.6736+37.0227C86.657+36.9805+86.6401+36.9385+86.6233+36.8964C86.5713+36.9329+86.4985+36.9577+86.4703+37.0077C86.1014+37.6636+85.7467+38.3277+85.3728+38.9807C84.7026+40.1512+84.0172+41.3131+83.3468+42.4836C82.8364+43.3748+82.3486+44.2789+81.8344+45.1679C81.0097+46.5936+80.1799+48.0166+79.3351+49.4305C78.9572+50.063+78.5806+50.7044+78.1275+51.2822C77.3381+52.2886+76.6145+53.3784+75.4015+53.9564C74.9347+54.1788+74.3651+53.9371+74.3224+53.4673C74.2882+53.091+74.31+52.6926+74.3969+52.3253C74.8011+50.6163+75.6598+49.1095+76.5791+47.6395C77.1672+46.6991+77.8011+45.7866+78.4343+44.8754C79.1376+43.8632+79.8562+42.8613+80.5818+41.8647C81.2832+40.9013+81.9971+39.9467+82.7156+38.996C82.959+38.674+83.2238+38.3669+83.4952+38.0678C84.5316+36.9253+85.5986+35.8093+86.604+34.6401C87.0199+34.1564+87.3108+33.5648+87.6534+33.019C87.6875+32.9648+87.6852+32.8878+87.6997+32.8214C87.6303+32.8445+87.5554+32.8575+87.4925+32.8923C86.9335+33.2018+86.3853+33.532+85.8173+33.8237C84.7127+34.3909+83.5409+34.7467+82.3167+34.9712C81.3399+35.1503+80.3813+35.1776+79.4084+34.992C79.3041+34.9721+79.1428+35.0624+79.0602+35.1505C78.667+35.5702+78.3151+36.0307+77.9049+36.4321C77.2535+37.0694+76.5018+37.5746+75.6202+37.8353C75.0551+38.0024+74.4984+38.2304+73.9033+37.7744C73.5372+37.494+73.2772+37.2413+73.2775+36.7672C73.2779+36.2666+73.2155+35.7568+73.6615+35.3759C73.7038+35.3397+73.6703+35.2148+73.672+35.131C73.5882+35.1496+73.4866+35.1439+73.4234+35.1905C71.8482+36.3506+70.1662+37.3089+68.3089+37.9465C67.537+38.2115+66.7676+38.3241+65.9714+38.0528C65.3298+37.8343+64.9311+37.2819+64.8847+36.598C64.8357+35.8763+65.0105+35.1979+65.2493+34.5383C65.4882+33.8787+65.7848+33.2395+66.0699+32.5975C66.4104+31.8307+66.7673+31.0713+67.1137+30.3071C67.3699+29.7419+67.3241+29.5495+66.81+29.3091C66.4919+29.1603+66.0707+28.9017+65.8244+29.0036C65.4101+29.1749+65.0525+29.5558+64.7527+29.9165C64.1086+30.6916+63.5168+31.5102+62.9032+32.3106C62.4179+32.9437+61.931+33.5756+61.4466+34.2094C60.977+34.8238+60.5166+35.4454+60.04+36.0544C59.1258+37.2229+58.2385+38.415+57.2747+39.5414C56.0893+40.9269+55.0275+42.4253+53.6407+43.6321C53.3544+43.8813+53.0724+44.1397+52.762+44.3559C52.4079+44.6026+51.9453+44.6284+51.5935+44.499C51.1764+44.3457+51.0323+43.851+51.0714+43.4299C51.1288+42.8116+51.2197+42.1759+51.4303+41.5962C51.9567+40.1476+52.4833+38.6944+53.2613+37.3513C53.9024+36.2446+54.5463+35.1389+55.1582+34.016C56.7463+31.1014+58.5715+28.338+60.4697+25.6205C61.4007+24.2876+62.3379+22.9588+63.2799+21.6337C63.9142+20.7414+64.5466+19.8469+65.2082+18.9751C65.7933+18.2041+66.4268+17.4702+67.0224+16.7071C67.7436+15.783+68.4465+14.8446+69.1592+13.9138C69.5731+13.3732+69.9937+12.8377+70.4028+12.2935C70.449+12.2321+70.4396+12.129+70.456+12.0453C70.3846+12.079+70.3154+12.1196+70.2409+12.1437C70.1964+12.158+70.1435+12.1448+70.0945+12.1466C68.7413+12.1953+67.3877+12.2389+66.0348+12.2954C65.0981+12.3345+64.1608+12.3742+63.2262+12.4454C62.2105+12.5228+61.1955+12.6191+60.1842+12.74C59.1387+12.865+58.0991+13.0383+57.0546+13.173C56.5135+13.2427+55.9628+13.2452+55.4246+13.3301C54.3938+13.4929+53.368+13.6883+52.3418+13.8788C51.5233+14.0306+50.7006+14.1679+49.8919+14.3624C49.2068+14.5272+48.5395+14.7657+47.8636+14.9693C47.558+15.0614+47.2551+15.1782+46.9423+15.2229C46.8106+15.2417+46.5723+15.1348+46.5325+15.0288C46.4753+14.8764+46.4928+14.6205+46.591+14.5026C46.7479+14.3144+46.9784+14.1451+47.2109+14.0696C48.3212+13.7088+49.428+13.3458+50.5926+13.1628C51.7518+12.9806+52.8879+12.6546+54.0446+12.4511C54.9022+12.3002+55.778+12.2555+56.6432+12.1435C57.6875+12.0083+58.7273+11.8362+59.7727+11.7105C60.4355+11.6308+61.1045+11.5999+61.7715+11.5592C62.6829+11.5036+63.6112+11.5472+64.5015+11.3824C65.2027+11.2526+65.8946+11.3516+66.5784+11.2539C67.7829+11.0819+69.0037+11.2303+70.1939+11.0828C71.2122+10.9566+72.218+10.9835+73.2278+10.977C76.5635+10.9555+79.8996+10.954+83.2353+10.9755C84.7606+10.9854+86.2936+10.9878+87.8071+11.1466C88.6755+11.2376+89.5485+11.1433+90.3949+11.2842C91.3605+11.4449+92.3335+11.2873+93.2765+11.4377C94.0737+11.5648+94.8597+11.5021+95.648+11.5613C96.7613+11.6449+97.8744+11.7377+98.9841+11.8592C99.4877+11.9145+99.9863+12.0337+100.481+12.1516C100.79+12.2254+101.011+12.5472+100.95+12.7637C100.887+12.9906+100.525+13.2149+100.265+13.1753C99.3197+13.0314+98.3755+12.8814+97.4304+12.7366C97.3544+12.725+97.275+12.7351+97.1236+12.7351M145.621+22.302C144.505+23.4697+143.317+24.5606+142.326+25.8565C141.223+27.2985+140.123+28.7341+139.217+30.3101C139.145+30.436+139.062+30.5557+138.984+30.6783C139.134+30.6336+139.284+30.5933+139.431+30.5414C139.473+30.5267+139.5+30.4743+139.539+30.4454C140.734+29.5457+141.934+28.6518+143.125+27.7463C144.19+26.9372+145.255+26.1288+146.299+25.2945C147.006+24.7299+147.716+24.1598+148.356+23.5235C149.58+22.3074+150.783+21.0667+151.936+19.7835C152.305+19.3724+152.523+18.8096+152.749+18.2896C152.944+17.841+152.736+17.5967+152.294+17.7505C151.653+17.9729+150.997+18.2018+150.423+18.5511C148.709+19.5935+147.21+20.9239+145.621+22.302M77.1803+48.6478C76.7296+49.54+76.2698+50.4279+75.8324+51.3266C75.6445+51.7128+75.4959+52.1191+75.3479+52.523C75.3246+52.5865+75.3892+52.6932+75.4372+52.7635C75.4481+52.7794+75.5826+52.7473+75.6204+52.7032C76.1458+52.0894+76.7216+51.5084+77.1716+50.8427C77.9293+49.722+78.6013+48.5437+79.3182+47.3952C80.0079+46.2901+80.6398+45.1549+81.2587+44.0077C82.1166+42.4171+83.1022+40.8956+84.0159+39.3345C84.1109+39.1722+84.4465+39.1137+84.2756+38.8171C84.1196+38.9527+83.9317+39.0651+83.8126+39.2278C82.919+40.4487+82.073+41.7057+81.1469+42.9009C79.7387+44.7183+78.4739+46.6299+77.1803+48.6478M126.707+33.5615C127.065+33.3018+127.427+33.0475+127.777+32.7773C127.839+32.7293+127.891+32.6083+127.878+32.5327C127.802+32.0804+127.345+31.7079+126.85+31.7265C125.952+31.7602+125.166+32.1398+124.426+32.6102C123.594+33.1392+122.875+33.8094+122.214+34.5349C121.984+34.7872+121.794+35.091+121.649+35.4009C121.573+35.565+121.564+35.8298+121.647+35.9833C121.781+36.2317+122.043+36.1517+122.281+36.078C123.907+35.5748+125.274+34.612+126.707+33.5615M77.2539+34.0031C77.1558+33.9505+77.028+33.9216+76.9644+33.8417C76.5781+33.3566+76.5725+33.3427+76.1973+33.7408C75.822+34.1389+75.4476+34.542+75.1161+34.976C74.8404+35.3371+74.6056+35.7347+74.3936+36.1377C74.2154+36.4767+74.4132+36.9992+74.6968+36.9921C74.9451+36.9859+75.2086+36.9397+75.4354+36.8419C76.3767+36.4356+77.1721+35.8184+77.8284+35.0362C78.0922+34.722+78.0381+34.6306+77.6463+34.3681C77.5281+34.2888+77.4331+34.1748+77.2539+34.0031M90.2796+33.1935C89.2594+33.6901+88.4721+34.5065+87.5752+35.1722C87.474+35.2473+87.4294+35.4012+87.3649+35.522C87.3399+35.5688+87.3326+35.625+87.3172+35.677C87.3636+35.6832+87.4305+35.7126+87.4534+35.6923C88.0848+35.1332+88.8984+35.2622+89.6361+35.1043C90.2634+34.9699+90.8795+34.7641+91.5126+34.6811C91.9978+34.6174+92.0321+34.2851+92.1137+33.9554C92.148+33.817+92.1214+33.663+92.1191+33.5161C92.1087+32.8497+91.6957+32.5714+91.0859+32.834C90.8571+32.9326+90.646+33.0725+90.2796+33.1935M87.9247+36.5788C87.5539+36.686+87.6024+36.9239+87.8454+37.0653C88.0928+37.2092+88.4294+37.3449+88.6895+37.2937C89.3779+37.1581+90.0813+36.9831+90.6285+36.5053C90.8365+36.3238+91.1265+36.2012+91.2217+35.9019C90.9811+35.9312+90.7376+35.9459+90.5005+35.9927C89.6652+36.1575+88.8322+36.3335+87.9247+36.5788M77.5482+32.6784C77.755+32.9343+77.9392+33.2139+78.1752+33.4391C78.399+33.6527+78.6585+33.5565+78.7206+33.262C78.7502+33.1218+78.7757+32.9433+78.7145+32.83C78.6105+32.6369+78.4663+32.3948+78.2843+32.3323C78.0538+32.253+77.7069+32.1919+77.5482+32.6784ZM184.146+23.0747C183.537+23.389+182.969+23.6737+182.393+23.9421C181.734+24.2489+181.038+24.0794+180.36+24.0511C180.184+24.0438+179.972+23.8587+179.86+23.6973C179.75+23.5396+179.677+23.2898+179.722+23.1154C179.75+23.0069+180.03+22.9007+180.194+22.9037C180.543+22.9101+180.892+22.9765+181.237+23.0404C182.046+23.1901+182.692+22.7581+183.324+22.3967C183.87+22.0842+184.383+21.668+184.815+21.2081C186.013+19.9333+187.055+18.5486+187.48+16.7984C187.594+16.3265+187.289+15.5839+186.839+15.4036C186.413+15.2333+185.983+15.0929+185.497+15.0766C183.401+15.0064+181.471+15.6335+179.535+16.329C178.565+16.6775+177.643+17.1121+176.753+17.6047C175.34+18.3867+173.971+19.239+172.681+20.2288C171.856+20.8611+171.1+21.5483+170.373+22.2784C169.589+23.0657+168.924+23.9576+168.382+24.9149C168.028+25.5393+167.698+26.2635+167.934+27.0216C168.081+27.492+168.297+27.9882+168.623+28.345C169.204+28.9819+169.877+29.538+170.537+30.0981C171.165+30.6314+171.846+31.104+172.466+31.6459C172.979+32.094+173.446+32.5963+173.917+33.0903C174.14+33.3245+174.349+33.3994+174.677+33.2902C176.143+32.8012+177.634+32.3803+179.088+31.8558C180.194+31.4564+181.246+30.9088+182.345+30.4854C182.891+30.2751+182.996+29.7603+183.203+29.3686C184.175+27.5346+185.389+25.8569+186.511+24.1225C187.073+23.2536+187.799+22.4873+188.476+21.6966C189.009+21.0738+189.542+20.4412+190.145+19.8906C191.095+19.0241+192.095+18.2148+193.231+17.584C193.872+17.2282+194.496+16.886+195.215+16.6774C195.705+16.5353+196.173+16.5476+196.634+16.5827C197.228+16.6281+197.502+17.4322+197.294+18.1774C197.115+18.8187+196.706+19.3199+196.344+19.8432C194.715+22.1972+192.696+24.2115+190.61+26.1415C189.103+27.5347+187.51+28.8504+185.666+29.8152C184.997+30.1652+184.379+30.6129+183.716+30.9744C183.505+31.0892+183.455+31.2253+183.353+31.4178C182.983+32.1136+182.74+32.85+182.608+33.6097C182.509+34.1868+182.411+34.8372+182.579+35.3708C182.83+36.1665+183.558+36.5134+184.39+36.5789C185.992+36.705+187.504+36.3278+188.979+35.7547C190.678+35.0946+192.324+34.3262+193.878+33.3673C194.381+33.0572+194.931+32.8246+195.44+32.5238C195.799+32.3116+196.181+32.0942+196.455+31.7912C197.099+31.0813+198.327+30.9415+199.137+31.2991C199.669+31.534+199.941+32.0736+199.998+32.662C200.041+33.1079+199.991+33.5415+199.769+33.9629C199.594+34.2931+199.685+34.4071+200.055+34.3636C200.74+34.2831+201.416+34.1271+202.052+33.8616C203.426+33.2889+204.771+32.6599+205.955+31.7346C206.806+31.0696+207.706+30.4615+208.51+29.7453C209.69+28.6951+210.841+27.6069+211.934+26.4673C212.89+25.4703+213.741+24.3727+214.655+23.3346C215.011+22.9305+215.417+22.5708+215.792+22.183C215.851+22.1223+215.866+22.0189+215.901+21.9353C215.813+21.9103+215.701+21.8377+215.642+21.8679C215.112+22.1364+214.551+21.9822+214.006+22.0023C212.286+22.0658+210.558+22.0387+208.846+22.1859C208.103+22.2498+207.361+22.3219+206.623+22.289C205.558+22.2415+204.495+22.1194+203.434+22.0017C202.929+21.9456+202.295+21.3336+202.219+20.84C202.131+20.2702+202.419+19.7929+202.749+19.3796C202.826+19.2825+203.163+18.9953+203.431+19.3185C203.599+19.5228+203.824+19.6653+203.588+19.988C203.446+20.1825+203.3+20.4797+203.349+20.6848C203.426+21.0059+203.795+20.9697+204.078+21.0057C204.283+21.032+204.484+21.1034+204.69+21.1208C205.259+21.1687+205.826+21.0812+206.402+21.2454C206.706+21.3319+207.111+21.3988+207.446+21.1354C207.537+21.0639+207.732+21.1245+207.879+21.1245C208.296+21.1245+208.713+21.1329+209.13+21.1231C211.072+21.0773+213.017+21.0712+214.955+20.9512C215.57+20.9131+216.188+20.845+216.808+20.8249C216.915+20.8214+217.057+20.7798+217.12+20.7039C217.806+19.8878+218.475+19.058+219.157+18.2392C219.494+17.8349+219.836+17.4331+220.2+17.0539C220.5+16.7417+220.867+16.7769+221.096+17.1367C221.167+17.2482+221.189+17.4697+221.124+17.5737C220.952+17.8527+220.726+18.1006+220.511+18.3518C219.89+19.077+219.261+19.7961+218.643+20.5233C218.591+20.5841+218.579+20.6872+218.574+20.772C218.573+20.7881+218.698+20.8328+218.761+20.8267C219.378+20.7668+220.011+20.9669+220.617+20.691C220.739+20.6355+220.908+20.683+221.055+20.683C222.453+20.683+223.852+20.701+225.249+20.6767C226.211+20.6601+227.171+20.5788+228.132+20.542C228.286+20.5361+228.514+20.5637+228.582+20.6626C228.672+20.7919+228.907+20.9016+228.753+21.1685C228.63+21.3826+228.554+21.5315+228.262+21.5791C227.107+21.7672+225.947+21.7027+224.788+21.7121C224.052+21.7181+223.316+21.6982+222.581+21.7164C221.007+21.7553+219.433+21.8214+217.859+21.8547C217.351+21.8654+217.178+22.2922+216.908+22.5688C216.482+23.0051+216.149+23.5305+215.748+23.9929C215.226+24.5937+214.699+25.1922+214.134+25.7523C212.55+27.3252+211.22+29.1024+210.032+30.9766C209.428+31.9295+209.014+33.0036+208.521+34.0259C208.28+34.5242+208.228+35.0563+208.243+35.6051C208.265+36.3673+208.724+36.8204+209.501+36.8781C210.653+36.9637+211.719+36.6069+212.77+36.237C214.59+35.5966+216.248+34.6219+217.828+33.5327C219.763+32.1988+221.658+30.8068+223.561+29.427C224.076+29.0533+224.597+28.672+225.043+28.2223C225.434+27.8282+225.719+27.3304+226.057+26.8834C226.779+25.9305+227.506+24.9817+228.228+24.0296C228.837+23.2276+229.437+22.4189+230.052+21.622C230.314+21.2832+230.59+20.9525+230.885+20.6428C232.128+19.339+233.33+17.9911+234.648+16.7679C235.379+16.0899+236.201+15.4565+237.218+15.18C237.774+15.0291+238.099+15.0614+238.419+15.4666C238.682+15.7996+238.594+16.1484+238.429+16.5238C238.067+17.3475+237.545+18.0539+236.938+18.7011C235.941+19.7642+234.944+20.8292+233.917+21.8631C233.167+22.6185+232.381+23.3408+231.587+24.05C230.482+25.0362+229.362+26.007+228.231+26.9636C227.53+27.5572+226.781+28.0957+226.083+28.6927C225.798+28.9358+225.577+29.2583+225.35+29.5621C224.511+30.6844+223.683+31.8141+222.849+32.9404C222.82+32.9794+222.769+33.0044+222.748+33.046C222.681+33.1789+222.623+33.3165+222.562+33.4523C222.698+33.3893+222.857+33.3537+222.965+33.2591C223.989+32.3637+225.164+31.7363+226.481+31.4451C227.311+31.2614+228.088+31.7384+228.112+32.7508C228.133+33.6088+228.117+34.4677+228.117+35.3262C228.117+36.225+228.533+36.5362+229.413+36.2307C230.51+35.8494+231.557+35.3686+232.556+34.7502C233.378+34.2422+234.213+33.7571+234.996+33.1915C235.716+32.672+236.423+32.1351+237.137+31.6066C237.549+31.3008+237.945+30.9668+238.384+30.7049C238.582+30.5867+238.903+30.5203+239.103+30.5977C239.366+30.6995+239.54+30.9846+239.448+31.3173C239.29+31.8887+239.159+32.4721+238.943+33.0214C238.753+33.5045+238.688+34.0531+238.285+34.4451C238.235+34.4933+238.275+34.6329+238.272+34.7301C238.362+34.7085+238.451+34.6868+238.54+34.6654C239.767+34.371+241.008+34.1244+242.217+33.7669C243.149+33.4912+244.115+33.2833+244.966+32.7652C245.195+32.6257+245.461+32.5111+245.722+32.4736C245.908+32.4469+246.173+32.5097+246.302+32.6358C246.63+32.9575+246.55+33.2581+246.066+33.4809C245.469+33.7555+244.858+34.0024+244.238+34.2192C242.593+34.7949+240.89+35.1559+239.196+35.5492C238.794+35.6425+238.395+35.7469+237.993+35.8421C237.681+35.9162+237.513+36.1384+237.389+36.411C236.999+37.2716+236.436+38.005+235.799+38.7C235.287+39.2588+234.634+39.5448+233.959+39.7742C233.011+40.0957+232.021+39.1103+232.066+38.1104C232.117+37.0051+232.876+36.6023+233.641+36.127C234.51+35.5865+235.491+35.3604+236.461+35.1251C236.783+35.047+236.973+34.9261+237.095+34.6468C237.34+34.0861+237.642+33.541+237.803+32.957C237.866+32.726+238.345+32.634+238.028+32.3326C237.999+32.3051+237.677+32.5934+237.486+32.7279C236.499+33.4232+235.539+34.1634+234.515+34.7983C233.122+35.6616+231.762+36.6055+230.171+37.0947C229.474+37.309+228.763+37.4731+228.041+37.1683C227.652+37.0043+227.34+36.7558+227.239+36.3348C227.09+35.7199+226.826+35.1454+227.056+34.4483C227.216+33.9614+227.109+33.3778+227.077+32.8401C227.06+32.5582+226.986+32.4682+226.578+32.5571C225.262+32.8434+224.21+33.5468+223.197+34.3596C222.479+34.9349+221.731+35.4748+221.048+36.0881C220.608+36.483+220.247+36.9704+219.879+37.4386C219.591+37.8054+219.332+37.9658+219.131+37.8222C218.794+37.5811+218.739+37.3335+218.996+36.9008C219.371+36.2683+219.749+35.6336+220.177+35.0361C221.006+33.8771+221.872+32.7449+222.715+31.5954C222.768+31.5232+222.747+31.3969+222.76+31.2958C222.677+31.3201+222.567+31.3184+222.513+31.3723C221.176+32.7078+219.543+33.645+217.993+34.6866C216.97+35.3743+215.903+36.0163+214.795+36.5537C213.505+37.1791+212.143+37.6976+210.716+37.8745C209.872+37.9791+208.98+38.0596+208.163+37.4872C207.592+37.087+207.285+36.6306+207.215+35.964C207.037+34.2655+207.726+32.8343+208.588+31.4541C208.624+31.3961+208.663+31.3379+208.687+31.2746C208.721+31.1839+208.744+31.0884+208.771+30.995C208.688+31.0235+208.579+31.0279+208.524+31.0843C207.712+31.9125+206.699+32.4621+205.761+33.1183C204.379+34.0849+202.847+34.7204+201.261+35.2236C200.708+35.3989+200.085+35.3738+199.492+35.391C199.18+35.4001+198.953+35.4766+198.732+35.7058C198.119+36.3419+197.494+36.9557+196.737+37.4449C195.984+37.9319+195.201+38.1399+194.337+38.0395C193.992+37.9994+193.713+37.7972+193.52+37.4565C193.14+36.7853+193.319+36.1377+193.535+35.49C193.64+35.1735+193.811+34.8788+193.953+34.5743C193.664+34.7277+193.376+34.8837+193.086+35.034C191.431+35.8905+189.761+36.7201+187.955+37.2103C187.264+37.3978+186.548+37.5512+185.836+37.5895C185.076+37.6304+184.311+37.6578+183.539+37.4808C182.643+37.2752+181.407+36.124+181.442+34.9606C181.472+33.9869+181.511+33.0392+181.976+32.1574C182.013+32.087+182.037+31.9385+182.007+31.9186C181.936+31.8722+181.815+31.8464+181.738+31.875C181.377+32.0085+181.008+32.134+180.67+32.3157C179.397+33.0009+177.957+33.2178+176.639+33.7762C176.201+33.9617+175.733+34.0763+175.279+34.2239C174.811+34.3759+174.711+34.504+174.882+34.9219C175.309+35.9637+175.192+37.0036+174.915+38.0414C174.284+40.4034+172.666+41.8263+170.434+42.6037C169.239+43.0196+167.98+43.1938+166.722+43.036C165.845+42.9259+164.974+42.7058+164.211+42.1789C163.521+41.7024+163.138+41.0008+163.11+40.2493C163.092+39.7681+163.293+39.1981+163.622+38.7127C164.2+37.8609+164.992+37.2643+165.824+36.7395C167.505+35.6804+169.348+34.9589+171.243+34.3732C171.766+34.2115+172.303+34.0913+172.823+33.9215C173.005+33.862+173.062+33.7573+172.906+33.5205C172.491+32.8885+171.847+32.5188+171.314+32.0262C170.746+31.5002+170.091+31.0683+169.497+30.569C168.963+30.1206+168.429+29.6643+167.95+29.1598C167.539+28.7268+167.193+28.2401+166.995+27.6462C166.59+26.4359+166.754+26.4125+167.111+25.2551C167.437+24.1976+168.114+23.3461+168.811+22.4979C170.363+20.6096+172.235+19.138+174.308+17.8568C175.441+17.1569+176.571+16.4652+177.778+15.9158C179.081+15.3227+180.427+14.847+181.821+14.4773C183.177+14.1178+184.532+14.0284+185.913+14.0605C186.63+14.0772+187.313+14.3005+187.812+14.7798C188.405+15.349+188.648+16.1232+188.488+16.9621C188.247+18.2227+187.698+19.355+186.897+20.3461C186.321+21.0585+185.842+21.8668+185.019+22.3607C184.714+22.5434+184.46+22.8097+184.146+23.0747M169.759+35.99C169.724+36.0247+169.695+36.0776+169.654+36.0913C168.417+36.4999+167.249+37.0579+166.155+37.7616C165.499+38.1842+164.902+38.6798+164.471+39.3565C164.027+40.0541+164.19+40.8136+164.862+41.2954C165.572+41.8045+166.394+41.9072+167.21+42.0158C168.091+42.1329+168.966+41.9365+169.803+41.7128C171.171+41.3473+172.401+40.6124+173.174+39.4396C173.971+38.231+174.393+36.8381+173.959+35.3315C173.829+34.8813+173.664+34.6877+173.245+34.8229C172.123+35.185+171.018+35.5975+169.759+35.99M193.97+21.1981C194.403+20.6671+194.871+20.1601+195.259+19.5983C195.634+19.0559+195.919+18.4526+196.259+17.885C196.399+17.6498+196.323+17.6122+196.088+17.5866C195.469+17.5191+194.962+17.8488+194.456+18.0864C192.982+18.7794+191.743+19.8307+190.575+20.9406C189.763+21.7122+189.057+22.599+188.334+23.4597C187.837+24.0502+187.36+24.6626+186.933+25.3037C186.129+26.5078+185.365+27.7381+184.594+28.9631C184.522+29.077+184.515+29.2313+184.477+29.3668C184.596+29.2975+184.713+29.2264+184.832+29.1596C184.892+29.1265+184.96+29.1087+185.016+29.0713C187.075+27.6953+189.095+26.2687+190.83+24.4825C191.861+23.4207+192.875+22.3425+193.97+21.1981M230.987+22.1548C230.675+22.5645+230.371+22.9803+230.05+23.3823C229.608+23.9364+229.151+24.4789+228.704+25.0302C228.66+25.0851+228.649+25.1668+228.622+25.2361C228.706+25.2079+228.796+25.1908+228.871+25.148C228.933+25.1131+228.976+25.0459+229.029+24.9959C229.701+24.3723+230.376+23.7517+231.045+23.1252C231.893+22.3315+232.754+21.5503+233.577+20.7313C234.261+20.0505+234.909+19.3323+235.553+18.613C236.156+17.9393+236.736+17.2444+237.317+16.5518C237.363+16.4976+237.343+16.3884+237.353+16.3048C237.269+16.3145+237.166+16.2956+237.105+16.3382C236.402+16.8333+235.654+17.28+235.018+17.8511C233.579+19.1439+232.313+20.6088+230.987+22.1548M194.412+36.0636C194.412+36.1855+194.409+36.3074+194.412+36.4291C194.426+36.9743+194.59+37.1328+195.117+37.0101C195.442+36.9347+195.776+36.8072+196.047+36.6187C196.566+36.2581+197.007+35.7764+197.548+35.4622C197.923+35.2447+197.707+35.172+197.535+35.1156C196.953+34.9246+196.515+34.5455+196.132+34.096C195.926+33.8544+195.804+33.9277+195.615+34.1158C195.08+34.649+194.7+35.2679+194.412+36.0636M234.887+38.1242C235.355+37.5587+235.822+36.9935+236.288+36.4267C236.31+36.4002+236.313+36.3584+236.325+36.3238C236.232+36.3107+236.126+36.2613+236.049+36.2901C235.371+36.5436+234.686+36.7838+234.03+37.0866C233.739+37.2208+233.496+37.4751+233.257+37.7014C233.012+37.9333+233.062+38.2449+233.207+38.4861C233.353+38.7286+233.616+38.7854+233.896+38.6412C234.198+38.4856+234.507+38.345+234.887+38.1242M196.84+33.1935C197.131+33.4838+197.393+33.8123+197.722+34.0494C197.909+34.1846+198.216+34.2379+198.445+34.1958C198.561+34.1743+198.623+33.8597+198.711+33.6785C198.76+33.5768+198.822+33.4804+198.864+33.3759C199.126+32.7187+199.059+32.196+198.114+32.1673C197.44+32.1469+197.044+32.5596+196.84+33.1935ZM103.931+28.2261C104.13+28.2043+104.316+28.1738+104.449+28.2432C104.778+28.4137+104.86+28.6978+104.696+28.9327C104.504+29.2081+104.007+29.3272+103.758+29.1575C103.544+29.0114+103.536+28.7213+103.743+28.417C103.782+28.3584+103.843+28.3139+103.931+28.2261Z" opacity="1" fill="#000000"/>
<path d="M197.707+259.906C197.707+257.932+197.707+255.959+197.707+253.985" opacity="1" fill="#000000"/>
</g>
</svg>
