<?xml version="1.0" encoding="UTF-8" standalone="no"?> <!-- Created with Vectornator for iOS (http://vectornator.io/) --><!DOCTYPE svg PUBLIC "-//W3C//DTD SVG 1.1//EN" "http://www.w3.org/Graphics/SVG/1.1/DTD/svg11.dtd">
<svg style="fill-rule:nonzero;clip-rule:evenodd;stroke-linecap:round;stroke-linejoin:round;" xmlns:vectornator="http://vectornator.io" xmlns:xlink="http://www.w3.org/1999/xlink" xmlns="http://www.w3.org/2000/svg" xml:space="preserve" version="1.1" viewBox="0 0 293 65">
<metadata>
<vectornator:setting key="DimensionsVisible" value="1"/>
<vectornator:setting key="PencilOnly" value="0"/>
<vectornator:setting key="SnapToPoints" value="0"/>
<vectornator:setting key="OutlineMode" value="0"/>
<vectornator:setting key="CMYKEnabledKey" value="0"/>
<vectornator:setting key="RulersVisible" value="1"/>
<vectornator:setting key="SnapToEdges" value="0"/>
<vectornator:setting key="GuidesVisible" value="1"/>
<vectornator:setting key="DisplayWhiteBackground" value="0"/>
<vectornator:setting key="doHistoryDisabled" value="0"/>
<vectornator:setting key="SnapToGuides" value="1"/>
<vectornator:setting key="TimeLapseWatermarkDisabled" value="0"/>
<vectornator:setting key="Units" value="Points"/>
<vectornator:setting key="DynamicGuides" value="0"/>
<vectornator:setting key="IsolateActiveLayer" value="0"/>
<vectornator:setting key="SnapToGrid" value="0"/>
</metadata>
<defs/>
<g id="Layer 1" vectornator:layerName="Layer 1">
<g opacity="1">
<path stroke="#000000" stroke-width="1" d="M46.6309+27.982C49.1887+27.982+51.4612+27.2872+53.771+26.3694C54.2378+26.1839+55.0525+25.6055+55.0525+25.6055C55.0525+25.6055+53.4883+27.9615+52.7641+29.1703C51.7626+30.8416+48.2612+41.3458+51.391+42.0713C53.9417+42.6626+60.3497+31.5212+61.7349+29.5946C61.9233+29.3325+63.5445+26.3694+63.6572+26.3694C63.7682+26.3694+62.1533+30.6861+62.0095+30.9526C61.0865+32.6642+58.2061+41.4018+61.8264+42.241C66.0867+43.2286+68.9352+29.2841+70.8888+27.4728C70.9771+27.3908+72.452+28.1754+72.628+28.2366C74.2375+28.7962+77.0426+29.0115+78.7611+28.7459C79.8661+28.5751+84.6694+26.0105+85.2604+26.2845C85.351+26.3265+84.5923+27.2138+84.5281+27.303C83.8145+28.2955+83.1879+29.2791+82.6058+30.3585C81.6017+32.2204+75.9309+40.8858+80.0427+42.4108C82.5421+43.3378+86.1989+38.8246+87.6404+37.488C94.2949+31.318+100.983+25.1243+105.491+17.2877C106.502+15.5287+109.92+9.69527+107.413+7.95149C104.593+5.99045+99.7848+12.2798+98.7166+13.9776C95.8274+18.5701+86.2666+36.4121+90.2951+41.3923C92.1533+43.6896+95.0641+40.5352+96.3366+39.3553C98.5756+37.2793+106.412+26.3298+109.793+27.8971C110.669+28.3032+112.134+32.6501+112.173+32.6501C112.517+32.6501+112.019+30.9625+111.99+30.8678C111.454+29.1279+110.187+27.6524+108.054+27.982C104.903+28.4689+99.2132+39.1804+101.737+41.0528C103.787+42.5729+108.112+37.0995+109.244+35.8754C112.644+32.1969+115.727+28.3566+119.221+24.7568C121.59+22.3162+124.691+20.406+126.544+17.5424C127.392+16.2332+131.121+11.3249+128.833+9.73386C126.43+8.06293+122.427+13.3167+121.601+14.6566C117.828+20.7799+115.232+26.5004+112.539+33.1594C111.98+34.5414+109.996+39.2889+111.532+40.7133C114.967+43.8977+118.491+40.7537+121.052+38.0822C127.269+31.5972+134.59+25.8716+140.367+18.9853C141.674+17.4276+145.902+11.4713+143.937+9.64899C141.804+7.67097+135.151+16.9283+134.325+18.3063C128.649+27.7796+124.821+37.7478+120.503+47.7579C120.054+48.7993+116.841+56.5167+118.855+57.2639C123.299+58.912+129.103+47.3206+127.826+43.7688C127.34+42.4181+126.839+41.4512+126.087+40.2889C125.959+40.0916+124.941+39.4438+125.08+39.1855C125.107+39.1349+125.204+39.1993+125.263+39.1855C128.19+38.5071+130.288+37.6885+132.769+36.0452C139.599+31.5215+145.167+25.5085+151.535+20.513C153.216+19.194+158.623+13.2436+155.837+11.1767C153.493+9.43823+149.601+15.1354+148.697+16.439C145.297+21.3422+138.082+32.0363+140.733+38.5914C143.287+44.9061+151.699+34.3832+153.182+31.6316C153.45+31.1345+155.202+28.1518+155.837+28.1518C156.523+28.1518+155.119+29.2354+154.739+29.7644C154.204+30.5077+153.763+31.2892+153.457+32.1409C152.898+33.6947+150.97+41.8627+155.196+40.883C158.922+40.0194+165.636+28.6352+161.146+25.8601C157.151+23.3905+152.861+30.8377+158.583+31.4619C161.774+31.81+165.975+30.1861+168.378+28.2366C169.18+27.5855+171.674+24.2475+172.589+24.2475C172.772+24.2475+172.625+24.5903+172.589+24.7568C172.308+26.057+171.213+27.5308+170.575+28.661C169.846+29.9504+166.878+39.743+168.927+40.883C170.988+42.0294+177.654+29.7926+178.539+28.1518C178.564+28.1046+179.168+27.1333+179.179+27.1333C179.365+27.1333+178.325+30.7253+178.264+30.9526C177.842+32.5175+175.139+40.5903+178.63+41.0528C182.711+41.5934+185.337+33.1929+186.045+30.698C186.429+29.3443+185.634+26.624+187.143+26.624C188.159+26.624+188.344+28.1806+189.157+28.7459C190.663+29.7931+194.303+30.1003+196.114+29.7644C197.774+29.4565+204.433+25.1302+201.973+23.229C200.039+21.7351+198.176+25.1147+197.396+26.1996C195.391+28.9875+190.255+40.5434+196.846+41.3074C202.512+41.9641+208.748+29.4653+211.401+25.7753C211.876+25.1146+211.815+23.4543+212.591+22.9744C212.654+22.9358+219.624+24.3529+219.731+24.5021C220.896+26.1225+211.747+39.3361+215.337+42.6654C216.674+43.9049+219.777+40.0263+220.28+39.1855C222.716+35.1213+227.156+31.9524+229.434+27.7274C229.97+26.7333+231.013+26.1577+231.54+25.1811C231.624+25.0246+231.889+23.7383+232.089+23.7383C239.769+23.7383+236.065+35.9145+233.462+38.9309C232.389+40.1749+229.795+42.97+227.97+40.7133C226.599+39.0187+229.707+36.2163+230.807+35.1964C234.29+31.9671+241.224+28.9156+246.369+28.9156" fill="none" stroke-linecap="round" opacity="1" stroke-linejoin="round"/>
<path stroke="#000000" stroke-width="1" d="M87.8192+19.8816C87.6666+19.8816+87.5139+19.8816+87.3613+19.8816" fill="none" stroke-linecap="round" opacity="1" stroke-linejoin="round"/>
</g>
</g>
</svg>
