<?xml version="1.0" encoding="UTF-8" standalone="no"?> <!-- Created with Vectornator for iOS (http://vectornator.io/) --><!DOCTYPE svg PUBLIC "-//W3C//DTD SVG 1.1//EN" "http://www.w3.org/Graphics/SVG/1.1/DTD/svg11.dtd">
<svg style="fill-rule:nonzero;clip-rule:evenodd;stroke-linecap:round;stroke-linejoin:round;" xmlns:vectornator="http://vectornator.io" xmlns:xlink="http://www.w3.org/1999/xlink" xmlns="http://www.w3.org/2000/svg" xml:space="preserve" version="1.1" viewBox="0 0 293 65">
<metadata>
<vectornator:setting key="DimensionsVisible" value="1"/>
<vectornator:setting key="PencilOnly" value="0"/>
<vectornator:setting key="SnapToPoints" value="0"/>
<vectornator:setting key="OutlineMode" value="0"/>
<vectornator:setting key="CMYKEnabledKey" value="0"/>
<vectornator:setting key="RulersVisible" value="1"/>
<vectornator:setting key="SnapToEdges" value="0"/>
<vectornator:setting key="GuidesVisible" value="1"/>
<vectornator:setting key="DisplayWhiteBackground" value="0"/>
<vectornator:setting key="doHistoryDisabled" value="0"/>
<vectornator:setting key="SnapToGuides" value="1"/>
<vectornator:setting key="TimeLapseWatermarkDisabled" value="0"/>
<vectornator:setting key="Units" value="Points"/>
<vectornator:setting key="DynamicGuides" value="0"/>
<vectornator:setting key="IsolateActiveLayer" value="0"/>
<vectornator:setting key="SnapToGrid" value="0"/>
</metadata>
<defs/>
<g id="Untitled" vectornator:layerName="Untitled">
<path d="M104.494+36.902C103.737+35.9362+103.836+34.9062+104.094+33.8535C104.289+33.056+104.639+32.3229+105.002+31.5941C105.048+31.5035+105.084+31.4087+105.125+31.3159C105.045+31.3576+104.96+31.3913+104.887+31.4422C103.103+32.6831+101.33+33.9398+99.5342+35.1637C98.0935+36.1457+96.549+36.9537+94.9719+37.6888C94.2267+38.0362+93.4348+38.3043+92.5849+38.2877C91.5282+38.2672+90.9448+37.3978+91.1783+36.3489C91.5508+34.6751+92.399+33.2657+93.4361+31.9434C93.6098+31.7219+93.7539+31.4558+93.9754+31.3026C94.0835+31.2278+94.2833+30.9502+94.5284+31.2437C94.7231+31.477+94.8178+31.674+94.6512+31.944C94.2857+32.5361+93.954+33.1532+93.5442+33.7129C92.928+34.5544+92.6143+35.5371+92.1815+36.4631C92.1051+36.6266+92.1476+36.9701+92.2681+37.0696C92.4174+37.1929+92.7231+37.2182+92.9302+37.1649C94.0242+36.8836+95.0736+36.4724+96.0663+35.9317C97.5308+35.1342+98.9407+34.2449+100.315+33.3029C101.968+32.1705+103.605+31.0157+105.243+29.8638C105.63+29.5917+106.037+29.3298+106.363+28.9944C106.638+28.7123+106.8+28.3227+107.03+27.9937C107.779+26.9234+108.479+25.8206+109.33+24.8201C110.241+23.7488+111.042+22.5815+111.978+21.5338C113.154+20.2174+114.367+18.9237+115.662+17.7266C116.671+16.7935+117.851+16.0477+119.112+15.4732C119.565+15.2671+120.066+15.0925+120.555+15.0596C121.358+15.0056+121.899+15.8964+121.548+16.6571C121.329+17.132+121.08+17.6214+120.734+18.0036C119.684+19.1617+118.6+20.291+117.489+21.3912C116.835+22.0386+116.117+22.6236+115.407+23.2111C114.523+23.9428+113.613+24.6437+112.721+25.3665C112.162+25.8196+111.626+26.3019+111.061+26.7476C110.113+27.4954+109.164+28.2428+108.191+28.9557C107.341+29.578+106.666+30.317+106.206+31.279C105.79+32.1459+105.37+33.0029+105.094+33.9285C104.901+34.5753+104.74+35.2001+104.993+35.8748C105.173+36.3553+105.564+36.5482+105.985+36.6556C107.059+36.9296+108.121+36.8427+109.174+36.4853C110.833+35.9224+112.348+35.0937+113.818+34.1498C115.18+33.2759+116.586+32.4689+117.994+31.6714C119.011+31.0953+120.048+30.5471+121.107+30.0529C122.143+29.5698+123.234+29.266+124.404+29.3632C125.025+29.4148+125.375+29.8079+125.682+30.282C125.817+30.4918+125.808+30.4768+125.953+30.2656C126.58+29.3521+127.203+28.4356+127.853+27.5388C128.521+26.6165+129.207+25.7068+129.908+24.8088C130.364+24.224+130.858+23.6689+131.337+23.102C132.085+22.2175+132.796+21.2976+133.593+20.4604C134.469+19.5411+135.444+18.717+136.34+17.8168C137.112+17.0421+137.978+16.3934+138.901+15.828C139.412+15.5151+139.915+15.1151+140.588+15.1709C141.007+15.2056+141.458+15.6374+141.498+16.0435C141.562+16.6868+141.416+17.2947+141.159+17.8642C140.729+18.8134+140.225+19.7191+139.499+20.4911C138.791+21.2441+138.171+22.0848+137.429+22.8007C136.126+24.0584+134.738+25.2191+133.288+26.3162C131.565+27.6207+129.811+28.8766+128.016+30.077C127.518+30.4096+127.031+30.7605+126.563+31.133C126.384+31.2759+126.236+31.4852+126.133+31.6938C125.72+32.5352+125.291+33.3723+124.946+34.2421C124.691+34.8836+124.828+35.5649+125.305+36.0453C125.574+36.3164+126.045+36.4484+126.446+36.5144C127.161+36.6321+127.852+36.4301+128.53+36.1857C130.209+35.5804+131.776+34.7613+133.311+33.8537C134.548+33.1215+135.76+32.3558+136.958+31.5627C137.624+31.1225+138.016+30.4754+138.517+29.9098C138.789+29.6032+139.022+29.2617+139.283+28.9449C139.948+28.1377+140.614+27.3306+141.291+26.5334C141.676+26.0795+142.081+25.6412+142.484+25.2027C143.085+24.5489+143.698+23.9053+144.298+23.2499C145.178+22.2876+146.037+21.3061+146.93+20.3556C148.047+19.1665+149.149+17.9593+150.333+16.8387C151.164+16.0512+152.141+15.4183+153.183+14.9256C153.599+14.7289+154.063+14.6016+154.548+14.632C155.167+14.6706+155.615+15.2203+155.389+15.7894C155.151+16.3881+154.849+16.9755+154.487+17.5076C153.319+19.2215+151.81+20.6356+150.333+22.0707C149.285+23.0888+148.195+24.0643+147.102+25.0352C146.22+25.8193+145.333+26.6021+144.401+27.325C142.908+28.4825+141.365+29.5742+139.868+30.7253C139.166+31.2645+138.341+31.6477+137.769+32.3507C137.207+33.0399+136.65+33.7329+136.096+34.4285C135.598+35.0542+135.106+35.6845+134.616+36.3161C134.553+36.3975+134.515+36.4989+134.466+36.5911C134.573+36.5763+134.68+36.5513+134.787+36.5485C135.37+36.5333+135.928+36.3824+136.497+36.2814C137.478+36.107+138.407+35.783+139.354+35.502C141.14+34.9722+142.819+34.1856+144.507+33.4194C146.059+32.7149+147.529+31.8679+148.949+30.9209C149.638+30.4613+150.332+30.0094+151.02+29.5507C151.528+29.2127+151.795+28.751+152.083+28.291C152.907+26.9724+153.838+25.7286+154.702+24.4401C155.473+23.2909+156.347+22.227+157.224+21.1725C158.193+20.0079+159.298+18.9541+160.362+17.8711C161.333+16.8837+162.431+16.055+163.698+15.4864C164.543+15.1075+165.403+14.9642+166.306+15.4228C166.588+15.5661+166.632+15.7846+166.767+15.981C166.907+16.1838+166.853+16.3671+166.799+16.6171C166.659+17.2727+166.19+17.6925+165.834+18.1781C165.305+18.9013+164.71+19.5878+164.072+20.2179C163.241+21.0385+162.34+21.7882+161.47+22.5693C161.01+22.9824+160.567+23.4159+160.089+23.8074C159.236+24.5067+158.361+25.1791+157.498+25.8668C156.803+26.421+156.124+26.9961+155.417+27.5348C154.479+28.2494+153.542+28.9691+152.562+29.6218C152.163+29.8872+151.992+30.2961+151.817+30.6421C151.151+31.9601+150.515+33.3054+150.161+34.7486C150.056+35.1735+150.113+35.6485+150.153+36.0954C150.195+36.5634+150.805+37.0436+151.295+37.0724C152.544+37.1458+153.694+36.755+154.851+36.3587C157.27+35.5304+159.485+34.2696+161.764+33.1451C162.72+32.6732+163.643+32.132+164.581+31.6242C164.654+31.5848+164.764+31.5813+164.806+31.524C165.033+31.2214+165.442+31.5426+165.709+31.2114C165.879+31.0006+166.314+31.0247+166.549+30.8406C166.946+30.5305+167.298+30.7794+167.557+30.9375C167.909+31.1527+168.278+31.4759+168.251+31.9802C168.228+32.4131+168.334+32.8474+168.135+33.2824C167.997+33.5851+168.118+33.6708+168.488+33.6942C169.672+33.769+170.796+33.47+171.933+33.2019C173.574+32.8148+175.068+32.071+176.583+31.3731C176.924+31.2156+177.266+31.031+177.556+30.7946C177.839+30.563+177.992+30.8659+178.208+30.871C178.194+31.099+178.264+31.3901+178.149+31.5433C177.794+32.0186+177.385+32.4577+176.967+32.8813C176.145+33.7146+175.479+34.6551+174.968+35.7046C174.822+36.0029+174.706+36.3195+174.614+36.6385C174.512+36.9925+174.752+37.2173+175.085+37.0534C175.555+36.8216+176.016+36.5546+176.438+36.2452C178.07+35.051+179.502+33.6329+180.911+32.1909C181.049+32.05+181.195+31.9098+181.359+31.804C181.665+31.6068+182.019+31.7712+182.032+32.1342C182.041+32.3604+182.004+32.6228+181.892+32.8131C181.454+33.5593+181.011+34.3064+180.508+35.0094C179.948+35.7927+179.651+36.6826+179.353+37.5734C179.283+37.7817+179.295+38.1555+179.425+38.2598C179.623+38.4184+179.941+38.2525+180.13+38.0913C180.958+37.3856+181.908+36.8085+182.512+35.8627C182.571+35.77+182.669+35.7019+182.748+35.622C183.598+34.7658+184.382+33.8537+185.093+32.8779C185.325+32.5607+185.598+32.2746+185.854+31.9757C186.258+31.505+186.752+31.4221+187.327+31.6062C188.259+31.9045+189.195+32.1448+190.185+32.2277C191.162+32.3094+192.131+32.4803+193.116+32.476C193.36+32.4749+193.499+32.4118+193.688+32.1816C194.476+31.2268+195.366+30.3699+196.609+30.0033C197.162+29.8402+197.718+29.7668+198.28+29.9106C198.985+30.0907+199.25+30.8917+198.808+31.457C198.144+32.3064+197.271+32.8057+196.222+33.0164C195.557+33.15+194.896+33.3202+194.225+33.4033C193.991+33.4322+193.955+33.5363+193.873+33.6847C193.487+34.3854+193.222+35.0939+193.238+35.9324C193.254+36.708+193.823+36.9796+194.372+37.0628C195.207+37.1895+195.985+36.8821+196.749+36.613C197.917+36.2019+198.995+35.5937+200.043+34.9431C200.89+34.4173+201.718+33.8591+202.531+33.2818C203.562+32.5492+204.579+31.7954+205.583+31.0258C206.171+30.5747+206.72+30.0721+207.291+29.5981C207.707+29.2531+208.171+29.2059+208.535+29.5948C208.971+30.0614+209.407+30.5743+209.669+31.1469C209.946+31.7534+209.725+32.4076+209.428+33.0053C209.019+33.8265+208.589+34.6412+208.378+35.5429C208.315+35.8143+208.267+36.0979+208.271+36.3748C208.28+36.8853+208.694+37.1796+209.172+37.0396C210.035+36.7874+210.871+36.4718+211.665+36.0407C212.878+35.3815+214.006+34.5965+215.131+33.7998C216.331+32.9499+217.457+31.9984+218.726+31.2379C219.193+30.958+219.558+30.5032+220.098+30.299C220.492+30.1501+220.801+30.3215+220.835+30.738C220.882+31.2893+220.671+31.7912+220.525+32.3007C220.394+32.7594+220.189+33.1966+220.028+33.6475C220+33.724+220.009+33.8357+220.048+33.9042C220.069+33.9396+220.199+33.9379+220.268+33.9159C221.759+33.4389+223.249+32.9564+224.739+32.4756C225.8+32.1334+226.789+31.6456+227.735+31.0582C228.051+30.8617+228.409+30.7318+228.75+30.5751C229.074+30.4259+229.306+30.4864+229.45+30.7517C229.565+30.9631+229.48+31.247+229.209+31.39C228.249+31.8964+227.279+32.3839+226.314+32.8813C225.229+33.4401+224.067+33.7734+222.899+34.1018C221.853+34.3963+220.813+34.7159+219.778+35.0514C219.487+35.1458+219.337+35.3937+219.196+35.6957C218.581+37.0193+217.88+38.2953+216.515+39.0212C216.277+39.148+216.033+39.2977+215.775+39.3485C214.884+39.5232+214.062+38.6954+214.226+37.8052C214.298+37.4153+215.013+36.5651+215.351+36.2509C215.782+35.8507+216.231+35.5004+216.767+35.2524C217.165+35.0682+217.525+34.7343+217.936+34.6623C218.666+34.5343+218.88+34.0355+219.08+33.457C219.244+32.9853+219.439+32.5244+219.617+32.0576C219.648+31.9754+219.665+31.8878+219.688+31.8028C219.582+31.8166+219.45+31.7951+219.375+31.8507C219.095+32.0578+218.843+32.3027+218.564+32.5111C217.534+33.2812+216.512+34.0644+215.457+34.7999C214.608+35.3917+213.716+35.9219+212.843+36.4792C211.921+37.0679+210.924+37.4969+209.882+37.8114C209.273+37.9948+208.681+38.1813+208.039+37.7656C207.565+37.4587+207.389+37.0626+207.322+36.5686C207.232+35.9085+207.386+35.2753+207.63+34.6711C207.927+33.9382+208.213+33.1935+208.595+32.5051C208.936+31.892+208.816+31.417+208.409+30.9286C207.919+30.3394+207.954+30.3745+207.366+30.8573C206.451+31.6076+205.499+32.3139+204.544+33.0126C203.476+33.7936+202.405+34.5728+201.301+35.301C200.461+35.8555+199.585+36.3641+198.692+36.8298C197.673+37.3613+196.59+37.7892+195.463+37.9903C194.688+38.1288+193.86+38.1012+193.132+37.6173C192.65+37.2966+192.423+36.8598+192.308+36.3091C192.113+35.3701+192.334+34.516+192.783+33.7086C192.947+33.4134+192.803+33.4307+192.592+33.4193C191.867+33.3802+191.135+33.3819+190.419+33.2749C189.29+33.106+188.149+32.9519+187.073+32.5509C186.804+32.4508+186.657+32.485+186.512+32.6731C186.092+33.2177+185.692+33.7782+185.264+34.3165C184.964+34.6945+184.638+35.054+184.31+35.4086C183.615+36.1596+182.941+36.9343+182.199+37.637C181.654+38.1537+181.035+38.6006+180.411+39.0228C180.025+39.284+179.539+39.2756+179.083+39.2274C178.813+39.1988+178.414+38.6214+178.394+38.2819C178.337+37.2865+178.582+36.3758+179.159+35.5576C179.193+35.5094+179.191+35.4366+179.21+35.3765C179.23+35.3119+179.255+35.2489+179.278+35.1852C179.217+35.1968+179.137+35.1877+179.099+35.2235C178.901+35.4071+178.719+35.6081+178.521+35.7924C177.655+36.6008+176.713+37.3078+175.653+37.841C175.358+37.9892+175.026+38.0895+174.7+38.1421C174.321+38.2032+173.722+37.6685+173.675+37.2114C173.642+36.8925+173.678+36.55+173.762+36.2388C174.085+35.0276+174.705+33.9769+175.568+33.0685C175.608+33.027+175.635+32.9738+175.668+32.926C175.591+32.9278+175.499+32.9025+175.439+32.9356C174.409+33.5093+173.294+33.861+172.165+34.1669C171.613+34.3165+171.035+34.3668+170.481+34.5092C169.67+34.7174+168.85+34.625+168.035+34.6286C167.68+34.6301+167.482+34.7504+167.301+35.0525C166.933+35.6692+166.498+36.2356+165.969+36.736C165.369+37.3027+164.714+37.7787+163.945+38.0562C163.375+38.2616+162.769+38.326+162.192+38.0171C161.556+37.6769+161.296+36.9328+161.547+36.1448C161.814+35.3065+162.174+34.5214+162.831+33.9029C162.904+33.8341+162.907+33.6908+162.943+33.582C162.85+33.613+162.734+33.6187+162.668+33.6788C162.029+34.2576+161.195+34.4832+160.465+34.8957C159.522+35.4284+158.549+35.9213+157.55+36.3385C156.088+36.9494+154.616+37.5459+153.055+37.8886C152.228+38.0703+151.411+38.1086+150.6+37.8766C149.827+37.6556+149.25+36.7713+149.188+35.9738C149.063+34.3691+149.674+32.9693+150.31+31.5679C150.353+31.4729+150.406+31.3828+150.452+31.2887C150.474+31.2431+150.487+31.1935+150.504+31.1457C150.443+31.1471+150.367+31.1251+150.324+31.1535C150.022+31.3535+149.737+31.5797+149.428+31.768C148.512+32.3265+147.603+32.8987+146.663+33.4135C145.822+33.8735+144.956+34.2906+144.079+34.6788C143.033+35.1423+141.974+35.5805+140.903+35.9816C140.043+36.3034+139.162+36.5704+138.281+36.8305C137.553+37.0457+136.829+37.2829+136.06+37.3485C135.419+37.4033+134.784+37.5294+134.144+37.6076C133.903+37.637+133.78+37.7365+133.789+37.9844C133.794+38.0968+133.788+38.2096+133.79+38.3222C133.823+39.6729+133.55+40.9904+133.219+42.2787C132.842+43.7499+132.337+45.1984+131.616+46.5433C131.007+47.681+130.295+48.7599+129.526+49.8054C128.826+50.758+127.98+51.561+127.177+52.4123C126.632+52.9897+125.945+53.3317+125.248+53.6378C124.342+54.0359+123.537+53.4465+123.511+52.4592C123.497+51.9076+123.628+51.3801+123.833+50.9005C124.524+49.282+125.369+47.7445+126.281+46.2334C127.07+44.9247+127.954+43.6845+128.803+42.4206C129.581+41.262+130.48+40.1842+131.32+39.0667C131.977+38.1918+132.618+37.3041+133.283+36.435C133.679+35.9171+134.105+35.422+134.523+34.9205C134.789+34.6008+135.067+34.2913+135.331+33.9694C135.376+33.9135+135.374+33.8185+135.394+33.7416C135.307+33.7701+135.208+33.7813+135.135+33.8299C134.656+34.1451+134.208+34.5195+133.701+34.7784C132.642+35.3194+131.665+36.0156+130.523+36.4037C129.795+36.651+129.112+37.0347+128.38+37.2614C127.193+37.6286+126.006+37.6611+124.908+36.9354C124.346+36.5647+124.009+36.0249+123.936+35.3766C123.843+34.5518+123.914+33.7329+124.4+33.0064C124.438+32.9493+124.42+32.8552+124.429+32.7783C124.365+32.8204+124.298+32.8576+124.238+32.9052C123.545+33.4615+122.848+34.0142+122.161+34.579C121.788+34.8859+121.43+35.2114+121.069+35.533C120.236+36.276+119.345+36.9335+118.35+37.4501C117.951+37.657+117.539+37.6388+117.133+37.5998C116.762+37.5642+116.532+37.1846+116.485+36.7615C116.402+36.0091+116.743+35.3817+117.103+34.7876C117.512+34.1131+118.001+33.4853+118.484+32.8599C118.638+32.6613+118.894+32.5453+119.084+32.3698C119.141+32.3164+119.131+32.1903+119.152+32.0974C119.076+32.111+118.986+32.1036+118.924+32.1412C117.319+33.1089+115.699+34.0525+114.123+35.0654C113.377+35.5449+112.628+35.9997+111.839+36.408C110.757+36.9686+109.64+37.4932+108.459+37.6921C107.205+37.9034+105.894+37.8754+104.737+37.1416C104.656+37.0903+104.597+37.0052+104.494+36.902M131.763+40.1121C131.381+40.6293+131.005+41.1512+130.615+41.6629C129.621+42.9694+128.667+44.2997+127.781+45.6867C126.784+47.2478+125.849+48.8385+125.041+50.5007C124.778+51.0397+124.635+51.6403+124.477+52.2234C124.44+52.3591+124.528+52.5718+124.629+52.6845C124.685+52.7459+124.903+52.7026+125.026+52.6531C125.582+52.4296+126.081+52.1193+126.528+51.7079C127.807+50.531+128.86+49.1681+129.814+47.7282C130.531+46.6457+131.106+45.4873+131.545+44.2583C131.939+43.154+132.3+42.04+132.563+40.8995C132.712+40.2524+132.757+39.581+132.839+38.9193C132.848+38.8516+132.792+38.7758+132.766+38.7037C132.718+38.7514+132.664+38.7946+132.623+38.8477C132.335+39.223+132.049+39.6003+131.763+40.1121M133.993+21.5274C133.674+21.8908+133.358+22.2561+133.037+22.6171C132.642+23.0621+132.239+23.5007+131.845+23.9476C131.6+24.2258+131.358+24.5072+131.129+24.7993C130.52+25.5804+129.924+26.3725+129.311+27.1514C128.908+27.6638+128.482+28.1578+128.077+28.6687C128.026+28.7329+128.042+28.8504+128.028+28.9432C128.104+28.9234+128.197+28.9244+128.256+28.8807C128.809+28.4724+129.357+28.0579+129.905+27.6422C131.035+26.7838+132.134+25.8787+133.303+25.0769C134.463+24.2815+135.465+23.309+136.492+22.3719C137.384+21.558+138.152+20.6028+138.938+19.6791C139.527+18.9866+139.987+18.1984+140.32+17.3504C140.449+17.02+140.49+16.6513+140.542+16.2959C140.57+16.1077+140.461+16.0708+140.298+16.1664C139.99+16.3462+139.673+16.5088+139.369+16.6944C137.925+17.5761+136.678+18.6977+135.496+19.8953C134.999+20.3988+134.538+20.9372+133.993+21.5274M161.16+18.4187C159.774+19.8142+158.339+21.1618+157.193+22.7803C156.497+23.7627+155.728+24.6928+155.008+25.6579C154.587+26.2207+154.197+26.8056+153.795+27.3823C153.754+27.4421+153.729+27.5137+153.697+27.5798C153.773+27.5679+153.87+27.5818+153.924+27.5401C154.352+27.2088+154.771+26.8661+155.194+26.5286C155.887+25.9757+156.587+25.4318+157.273+24.8699C157.881+24.3717+158.471+23.8516+159.073+23.3458C159.89+22.6593+160.742+22.011+161.522+21.2848C162.509+20.3655+163.462+19.4063+164.384+18.4211C164.897+17.873+165.323+17.2427+165.772+16.6373C165.914+16.4459+165.792+16.1366+165.568+16.131C165.198+16.1218+164.792+16.0894+164.462+16.22C163.242+16.7025+162.175+17.4421+161.16+18.4187M147.847+23.0817C148.561+22.4131+149.293+21.7634+149.983+21.0709C150.8+20.2507+151.6+19.4117+152.369+18.5467C152.944+17.9003+153.472+17.2101+153.993+16.5182C154.19+16.2562+154.308+15.9348+154.462+15.6405C154.052+15.492+153.737+15.7608+153.408+15.908C152.316+16.3955+151.389+17.1357+150.549+17.9635C149.323+19.1704+148.149+20.4297+146.96+21.6742C146.472+22.1861+145.995+22.71+145.528+23.242C144.645+24.247+143.781+25.2673+142.897+26.2708C142.11+27.1647+141.307+28.0442+140.513+28.9323C140.481+28.9677+140.476+29.0262+140.458+29.074C140.519+29.0731+140.601+29.0976+140.638+29.0672C140.991+28.7713+141.306+28.4193+141.689+28.1722C143.078+27.2765+144.256+26.1187+145.543+25.0973C146.254+24.533+146.881+23.8641+147.551+23.2476C147.609+23.1947+147.702+23.1811+147.847+23.0817M115.746+21.3922C116.507+20.6759+117.274+19.9649+118.028+19.2414C118.516+18.774+119.003+18.3048+119.457+17.8057C119.865+17.357+120.23+16.8686+120.605+16.3913C120.648+16.3364+120.653+16.2391+120.645+16.1646C120.643+16.1443+120.528+16.1155+120.47+16.125C120.347+16.1452+120.223+16.1764+120.107+16.223C118.776+16.7586+117.594+17.5404+116.517+18.4731C115.906+19.0025+115.362+19.6092+114.792+20.185C114.232+20.7498+113.538+21.1633+113.035+21.7952C112.65+22.2775+112.197+22.7045+111.803+23.1799C111.293+23.795+110.811+24.4331+110.319+25.0625C109.84+25.6743+109.363+26.2872+108.888+26.9014C108.857+26.9408+108.847+26.9958+108.827+27.0436C108.888+27.0446+108.971+27.0723+109.007+27.0428C109.595+26.5549+110.177+26.0593+110.761+25.5666C111.328+25.0884+111.894+24.6095+112.464+24.1343C113.534+23.2415+114.607+22.3512+115.746+21.3922M119.125+33.6919C118.384+34.4438+117.829+35.3149+117.464+36.3049C117.43+36.3982+117.459+36.5148+117.458+36.6206C117.58+36.619+117.726+36.661+117.819+36.6086C118.385+36.29+118.98+36.0017+119.489+35.6056C120.417+34.8835+121.287+34.0877+122.191+33.334C122.553+33.032+122.944+32.7646+123.315+32.4733C123.774+32.1131+124.216+31.7304+124.686+31.386C124.887+31.2391+124.839+31.1105+124.729+30.9783C124.642+30.873+124.523+30.7593+124.398+30.7263C123.927+30.6021+123.437+30.6456+122.99+30.7872C121.421+31.284+120.212+32.2952+119.194+33.5581C119.183+33.5717+119.193+33.6019+119.125+33.6919M163.255+34.8408C163.096+35.0899+162.881+35.3203+162.792+35.5923C162.655+36.0085+162.32+36.3874+162.455+36.8635C162.492+36.9962+162.649+37.1795+162.765+37.1903C163.149+37.2262+163.532+37.2295+163.909+37.0374C164.924+36.5199+165.677+35.7216+166.357+34.8405C166.595+34.5318+166.562+34.3987+166.237+34.2363C165.698+33.967+165.242+33.641+165.137+32.9892C165.132+32.957+164.931+32.9048+164.904+32.9352C164.37+33.5414+163.848+34.1584+163.255+34.8408M217.455+35.9221C217.114+36.1282+216.721+36.2812+216.443+36.5527C216.013+36.974+215.478+37.314+215.268+37.9466C215.217+38.1026+215.205+38.1574+215.313+38.2374C215.421+38.3177+215.462+38.4999+215.689+38.3766C216.241+38.0766+216.788+37.7697+217.179+37.2689C217.463+36.904+217.7+36.5003+217.942+36.1045C218.027+35.9663+218.066+35.8001+218.126+35.6467C217.986+35.7002+217.846+35.7556+217.705+35.8063C217.646+35.8275+217.583+35.8387+217.455+35.9221M195.626+31.6645C195.422+31.8238+195.216+31.9811+195.015+32.1437C194.968+32.1817+194.935+32.2378+194.896+32.2856C194.979+32.3039+195.071+32.3563+195.142+32.3352C196.107+32.0479+197.125+31.879+197.883+31.1233C197.923+31.083+197.956+31.0348+197.992+30.9903C197.934+30.9447+197.879+30.8636+197.818+30.8589C197.005+30.7964+196.283+31.0093+195.626+31.6645M166.229+33.0837C166.313+33.1513+166.389+33.2354+166.483+33.2837C167.003+33.5512+167.209+33.4656+167.303+32.9075C167.346+32.6456+167.338+32.3659+167.297+32.1032C167.279+31.9904+167.134+31.8437+167.019+31.81C166.634+31.6981+166.239+31.961+166.03+32.3204C165.853+32.6252+166.212+32.7701+166.229+33.0837ZM91.8561+28.522C92.2721+27.9709+92.6459+27.447+93.0382+26.9374C93.9725+25.7235+94.9043+24.5073+95.8597+23.31C96.3922+22.6427+96.9741+22.015+97.5263+21.3631C98.2313+20.5309+98.9285+19.6921+99.6301+18.8569C99.6734+18.8053+99.7261+18.7618+99.7727+18.7129C100.649+17.7922+101.52+16.8669+102.402+15.9512C103.751+14.5487+105.106+13.1505+106.465+11.7572C106.613+11.6058+106.823+11.5162+106.975+11.368C107.241+11.1096+107.412+11.2792+107.583+11.4737C107.767+11.684+107.765+11.9046+107.584+12.116C107.496+12.2182+107.394+12.3082+107.299+12.4038C106.232+13.4708+105.156+14.5291+104.1+15.6071C102.927+16.8047+101.753+18.0019+100.616+19.2334C99.6938+20.2323+98.81+21.2681+97.9387+22.3122C96.9801+23.4612+96.0438+24.6294+95.1193+25.8061C94.4159+26.7014+93.7584+27.6328+93.0582+28.5308C92.1793+29.658+91.2658+30.7581+90.3898+31.8875C89.733+32.7344+89.1233+33.6177+88.4718+34.4688C87.8012+35.3447+87.1032+36.1995+86.4212+37.0667C85.6066+38.1022+84.8481+39.1876+83.9703+40.1662C82.9818+41.2682+81.9307+42.3243+80.8215+43.3038C80.2316+43.8247+79.4492+44.1235+78.6053+43.9595C77.9533+43.8328+77.5257+43.3667+77.3134+42.7943C77.1237+42.283+77.0827+41.7084+77.0312+41.1565C76.9874+40.6876+76.9789+40.2066+77.0313+39.7395C77.1342+38.8233+77.2247+37.9075+77.3942+36.9948C77.5301+36.2628+77.6515+35.5222+77.8469+34.8079C78.205+33.4991+78.5963+32.1945+79.0691+30.9236C79.4383+29.9313+79.9448+28.9893+80.4053+28.0321C80.5506+27.7302+80.7511+27.4552+80.9099+27.159C80.9383+27.1061+80.8861+27.01+80.8711+26.9339C80.8046+26.9706+80.7199+26.9921+80.6742+27.0464C80.0709+27.7631+79.4778+28.4886+78.8728+29.204C76.6745+31.8037+74.2149+34.1534+71.7907+36.5338C70.7907+37.5156+69.7769+38.4959+68.6305+39.3229C67.9466+39.8163+67.3374+40.4179+66.6334+40.8771C66.1155+41.2148+65.581+41.5851+64.8806+41.5436C64.3614+41.5128+64.0092+41.2763+63.7856+40.8562C63.619+40.5434+63.4835+40.2043+63.5016+39.8243C63.5209+39.4198+63.4984+39.0135+63.5074+38.6083C63.5346+37.3813+63.9012+36.2356+64.3084+35.0899C64.8841+33.4704+65.7043+31.9688+66.4927+30.4551C67.1614+29.1712+67.9366+27.9423+68.6791+26.6976C69.4234+25.45+70.173+24.2053+70.9445+22.9745C71.4068+22.2371+71.9274+21.5366+72.4007+20.8058C73.4277+19.2202+74.391+17.5991+75.1826+15.8781C75.4246+15.352+75.4151+14.8191+75.39+14.2791C75.379+14.0415+75.1218+13.9544+74.9268+13.9685C74.5005+13.9995+74.0647+14.0398+73.6565+14.158C71.9134+14.6628+70.3717+15.5573+68.9619+16.6846C68.365+17.1619+67.7316+17.6141+67.2212+18.1746C66.2173+19.2769+65.2611+20.4347+64.83+21.9062C64.7278+22.2552+64.6981+22.6484+64.7384+23.0097C64.7786+23.3708+64.5675+23.4756+64.333+23.544C64.1212+23.6058+63.7993+23.2806+63.7765+23.0384C63.7104+22.3348+63.8016+21.6448+64.1011+21.0113C64.565+20.0303+65.1099+19.0941+65.859+18.292C66.1734+17.9554+66.4379+17.5681+66.7739+17.2566C67.8489+16.2602+69.001+15.3692+70.2723+14.6222C71.2532+14.0459+72.2541+13.5356+73.3516+13.2455C74.1334+13.0388+74.9271+12.7682+75.7224+13.259C76.1804+13.5416+76.5939+14.3404+76.4815+14.8284C76.1838+16.121+75.5448+17.5396+74.6264+18.9928C74.1086+19.8121+73.6214+20.6508+73.0998+21.4675C72.2796+22.7516+71.4268+24.0151+70.6166+25.3054C70.0246+26.2484+69.4945+27.2301+68.9091+28.1774C67.7853+29.9961+66.7853+31.8821+65.8931+33.8212C65.3169+35.0736+64.7809+36.3445+64.5696+37.7365C64.4431+38.5696+64.3585+39.3786+64.5906+40.1938C64.7191+40.6448+64.8382+40.6756+65.2909+40.4932C65.9046+40.2459+66.4591+39.9028+66.9678+39.4861C68.0901+38.567+69.2129+37.6506+70.2455+36.6255C72.1222+34.7623+74.0441+32.9445+75.9106+31.0713C76.8618+30.1167+77.7435+29.0918+78.6387+28.0828C79.5115+27.0991+80.361+26.0947+81.2215+25.1001C81.81+24.42+82.3992+23.7407+82.9899+23.0626C83.0637+22.9779+83.1353+22.8643+83.2309+22.8317C83.387+22.7786+83.5817+22.7272+83.7222+22.7787C83.8196+22.8144+83.9057+23.025+83.9033+23.1557C83.8994+23.3613+83.8671+23.5977+83.7598+23.7654C82.4824+25.7628+81.5271+27.9289+80.4881+30.0483C79.9772+31.0905+79.5805+32.2008+79.248+33.3149C78.9475+34.3217+78.6787+35.3426+78.488+36.3854C78.3214+37.2967+78.1687+38.2+78.0713+39.1233C78.0088+39.7164+77.9563+40.3066+77.9823+40.8944C78.0036+41.3781+78.1226+41.863+78.2444+42.3355C78.4455+43.1151+78.9807+43.1189+79.4853+42.9255C80.0527+42.7079+80.5427+42.3671+80.9746+41.9605C82.0333+40.9633+82.9815+39.867+83.8544+38.7C84.4667+37.8815+85.1707+37.1323+85.8003+36.326C86.4598+35.4813+87.0681+34.5968+87.7198+33.7458C88.2601+33.0402+88.8393+32.3645+89.3863+31.6639C90.0488+30.8154+90.6935+29.9531+91.3509+29.1006C91.4973+28.9108+91.6646+28.737+91.8561+28.522ZM97.6681+28.522C97.5234+28.5558+97.4123+28.5514+97.3017+28.5566C96.9329+28.5739+96.8701+28.3512+96.8892+28.0495C96.9049+27.7996+97.1756+27.475+97.3742+27.4847C97.5523+27.4935+97.8445+27.8038+97.8302+28.0116C97.8192+28.1726+97.7469+28.3295+97.6681+28.522Z" opacity="1" fill="#000000"/>
</g>
</svg>
