<?xml version="1.0" encoding="UTF-8" standalone="no"?> <!-- Created with Vectornator for iOS (http://vectornator.io/) --><!DOCTYPE svg PUBLIC "-//W3C//DTD SVG 1.1//EN" "http://www.w3.org/Graphics/SVG/1.1/DTD/svg11.dtd">
<svg style="fill-rule:nonzero;clip-rule:evenodd;stroke-linecap:round;stroke-linejoin:round;" xmlns:vectornator="http://vectornator.io" xmlns:xlink="http://www.w3.org/1999/xlink" xmlns="http://www.w3.org/2000/svg" xml:space="preserve" version="1.1" viewBox="0 0 293 65">
<metadata>
<vectornator:setting key="DimensionsVisible" value="1"/>
<vectornator:setting key="PencilOnly" value="0"/>
<vectornator:setting key="SnapToPoints" value="0"/>
<vectornator:setting key="OutlineMode" value="0"/>
<vectornator:setting key="CMYKEnabledKey" value="0"/>
<vectornator:setting key="RulersVisible" value="1"/>
<vectornator:setting key="SnapToEdges" value="0"/>
<vectornator:setting key="GuidesVisible" value="1"/>
<vectornator:setting key="DisplayWhiteBackground" value="0"/>
<vectornator:setting key="doHistoryDisabled" value="0"/>
<vectornator:setting key="SnapToGuides" value="1"/>
<vectornator:setting key="TimeLapseWatermarkDisabled" value="0"/>
<vectornator:setting key="Units" value="Pixels"/>
<vectornator:setting key="DynamicGuides" value="0"/>
<vectornator:setting key="IsolateActiveLayer" value="0"/>
<vectornator:setting key="SnapToGrid" value="1"/>
</metadata>
<defs/>
<g id="Layer 2" vectornator:layerName="Layer 2">
<g opacity="1">
<path stroke="#000000" stroke-width="1" d="M60.8007+41.9734C62.8065+40.9705+65.0258+40.6996+67.0808+39.558C75.4394+34.9143+82.5791+28.8905+89.3027+22.1669C90.6149+20.8547+97.3861+14.9446+94.52+12.7951C91.6951+10.6764+85.4028+17.2309+84.0854+19.0752C78.3378+27.1219+71.4911+34.839+67.5639+44.0024C66.5418+46.3873+64.2321+48.3443+63.6026+50.8622C63.5682+50.9998+64.3413+49.578+64.5688+49.1231C65.2067+47.8472+66.1974+46.6525+67.0808+45.5482C68.8097+43.3871+78.458+35.09+81.5734+38.2053C85.4555+42.0875+76.8207+51.126+73.2643+52.3114C71.6685+52.8433+67.4111+52.8999+66.9842+50.7656C66.0075+45.8823+74.0585+45.1538+77.129+44.0024C88.8303+39.6144+99.2205+33.1117+108.916+25.3553C110.502+24.0862+120.128+15.5277+117.128+13.2782C114.224+11.1+108.471+16.3836+106.501+17.9158C99.4265+23.4178+94.5192+32.0474+90.1723+39.6546C88.9189+41.848+86.0128+47.1519+87.8535+49.6061C90.7447+53.4612+99.6932+43.2736+101.476+41.4903C101.573+41.3937+101.67+41.2971+101.766+41.2005C103.292+39.6749+105.003+37.8185+106.694+36.4662C106.736+36.4323+107.559+35.8819+107.467+35.7899C106.931+35.2543+104.534+39.5288+104.278+39.8478C102.994+41.4532+97.7858+47.6111+100.704+49.7994C103.651+52.0102+113.096+41.1683+115.486+39.4614C115.896+39.1683+117.327+36.9493+117.708+36.9493C117.713+36.9493+115.479+40.4743+115.196+40.814C114.206+42.002+109.153+50.2563+111.525+51.4419C114.894+53.1263+125.16+43.6052+127.466+41.6836C128.088+41.1654+131.304+37.511+129.882+36.5629C129.063+36.0172+126.547+38.0137+126.114+38.5918C124.743+40.419+118.852+49.9865+122.732+51.5385C125.172+52.5144+129.288+47.8616+131.138+46.8043C139.831+41.8368+147.857+33.2397+153.843+25.2587C155.08+23.6094+161.251+15.5398+158.287+13.7612C156.129+12.4662+151.533+17.918+150.558+19.1718C145.253+25.9918+139.698+34.3605+136.935+42.6497C136.271+44.6401+134.834+46.4873+134.423+48.5434C134.195+49.6846+133.553+51.925+133.553+51.925C133.553+51.925+133.527+51.6007+133.553+51.4419C133.78+50.0839+134.704+48.4787+135.486+47.384C138.397+43.3083+141.562+40.3364+146.017+38.1087C147.002+37.6164+150.055+36.5371+150.944+37.7223C153.88+41.6369+145.632+50.5718+142.249+51.925C140.494+52.6268+137.271+52.347+136.838+50.1859C136.447+48.2283+139.065+46.8839+140.703+46.611C146.995+45.5624+152.057+41.6536+157.321+38.4952C158.795+37.6111+161.502+36.2051+162.538+34.8237C162.603+34.7371+162.835+34.2474+163.022+34.3407C163.315+34.4876+160.43+37.856+160.22+38.1087C159.126+39.4211+154.581+48.3153+156.065+49.7994C158.229+51.963+162.088+48.6135+163.311+46.9009C163.972+45.976+171.691+36.3696+172.007+36.3696C173.843+36.3696+176.396+36.5007+178.19+36.9493C179.344+37.2378+176.713+39.7797+176.258+40.2343C174.968+41.5243+169.394+50.2803+172.297+51.7317C173.945+52.5557+176.526+49.2703+177.514+48.4467C180.52+45.9416+192.232+31.3234+196.741+37.3358C197.383+38.1922+196.057+40.5241+197.127+40.5241C197.799+40.5241+196.534+37.0361+196.161+36.7561C195.3+36.1101+192.747+36.6192+191.813+36.8527C189.449+37.4438+181.06+44.062+185.147+46.5144C187.876+48.1518+191.596+44.775+193.649+43.1328C201.084+37.1851+207.176+29.8961+213.939+23.1331C215.402+21.6694+219.835+15.4559+218.093+13.2782C215.745+10.3425+210.714+17.084+209.591+18.6887C204.858+25.4501+199.047+33.3279+197.031+41.3937C196.57+43.235+194.766+47.8245+196.451+49.5095C200.806+53.8649+210.904+42.4095+213.262+39.4614C213.529+39.1279+217.465+34.5579+217.61+34.6305C221.522+36.5864+216.949+48.6244+214.808+50.7656C213.087+52.4865+209.957+52.2222+210.557+49.2197C211.718+43.4147+221.206+39.7039+226.112+38.302C228.045+37.7499+232.199+35.8404+232.199+33.5677C232.199+33.1827+232.023+32.8914+231.62+32.8914" fill="none" stroke-linecap="round" opacity="1" stroke-linejoin="round"/>
<path stroke="#000000" stroke-width="1" d="M166.886+30.6692C167.137+30.7946+167.007+30.7658+167.273+30.7658" fill="none" stroke-linecap="round" opacity="1" stroke-linejoin="round"/>
</g>
</g>
</svg>
