<?xml version="1.0" encoding="UTF-8" standalone="no"?> <!-- Created with Vectornator for iOS (http://vectornator.io/) --><!DOCTYPE svg PUBLIC "-//W3C//DTD SVG 1.1//EN" "http://www.w3.org/Graphics/SVG/1.1/DTD/svg11.dtd">
<svg style="fill-rule:nonzero;clip-rule:evenodd;stroke-linecap:round;stroke-linejoin:round;" xmlns:vectornator="http://vectornator.io" xmlns:xlink="http://www.w3.org/1999/xlink" xmlns="http://www.w3.org/2000/svg" xml:space="preserve" version="1.1" viewBox="0 0 293 65">
<metadata>
<vectornator:setting key="DimensionsVisible" value="1"/>
<vectornator:setting key="PencilOnly" value="0"/>
<vectornator:setting key="SnapToPoints" value="0"/>
<vectornator:setting key="OutlineMode" value="0"/>
<vectornator:setting key="CMYKEnabledKey" value="0"/>
<vectornator:setting key="RulersVisible" value="1"/>
<vectornator:setting key="SnapToEdges" value="0"/>
<vectornator:setting key="GuidesVisible" value="1"/>
<vectornator:setting key="DisplayWhiteBackground" value="0"/>
<vectornator:setting key="doHistoryDisabled" value="0"/>
<vectornator:setting key="SnapToGuides" value="1"/>
<vectornator:setting key="TimeLapseWatermarkDisabled" value="0"/>
<vectornator:setting key="Units" value="Pixels"/>
<vectornator:setting key="DynamicGuides" value="0"/>
<vectornator:setting key="IsolateActiveLayer" value="0"/>
<vectornator:setting key="SnapToGrid" value="0"/>
</metadata>
<defs/>
<g id="Layer 2" vectornator:layerName="Layer 2">
<g opacity="1">
<path stroke="#000000" stroke-width="1" d="M18.1613+44.0298C19.3958+45.4138+22.7033+39.1051+23.0934+38.285C26.3701+31.3971+30.1748+23.2612+31.8688+15.6648C32.3894+13.3301+33.5349+11.208+33.9185+8.84277C34.0429+8.07536+34.1993+7.29609+34.3668+6.54484C34.4623+6.11665+34.9014+4.94016+34.6231+5.25226C33.5499+6.45541+33.0661+11.3975+32.6374+13.0796C30.7075+20.6522+28.1969+27.8457+26.8085+35.628C26.3498+38.1995+26.1399+44.2533+29.3066+44.9634C33.6051+45.9272+36.5801+32.2974+37.6976+29.1651C37.94+28.4858+38.8018+24.6906+39.4911+24.4974C40.3379+24.2601+41.4445+24.9641+42.2454+25.1437C42.8566+25.2808+46.0634+25.4603+46.3449+25.9336C46.4696+26.1433+44.9841+29.2178+44.8076+29.8114C43.894+32.8841+40.4409+43.022+45.256+44.1017C48.2165+44.7655+53.3295+33.6022+54.5437+31.463C55.2272+30.259+55.836+28.8278+56.1451+27.4417C56.2081+27.1591+56.2732+26.5799+56.2732+26.5799C56.2732+26.5799+55.364+29.6284+54.7999+31.104C53.7203+33.9281+49.9499+42.7714+54.864+43.3836C58.8502+43.8801+63.4704+29.6644+61.0131+26.2209C58.1007+22.1395+51.1914+30.3859+59.604+30.3859C60.558+30.3859+61.4335+29.9578+62.2942+29.596C65.711+28.1595+68.2493+25.605+71.0055+23.133C71.0856+23.0612+71.9728+22.239+72.0304+22.2713C72.0697+22.2934+70.3554+27.3851+70.2369+27.8725C69.2028+32.1234+68.3739+36.2984+67.4185+40.5829C66.2562+45.7954+65.5258+51.0288+63.8315+56.094C63.6278+56.7031+62.0485+60.2289+61.2053+59.7563C59.6534+58.8864+61.8696+51.564+62.2942+50.4928C64.897+43.9272+68.4314+37.5686+72.5428+32.0375C73.7374+30.4303+76.1909+26.4894+78.5638+27.1544C82.5578+28.2738+76.4297+40.4809+72.735+41.5165C71.5826+41.8395+67.4836+41.945+68.6996+39.2186C70.5229+35.1303+74.3528+36.4118+77.7952+35.1254C79.4839+34.4943+81.4867+32.8976+82.9195+31.7503C84.9682+30.1097+87.3285+28.0999+89.1327+26.0773C90.0324+25.0686+91.1293+24.0573+92.1432+23.2048C92.1841+23.1704+92.4824+22.8882+92.5275+22.9894C92.9201+23.8698+89.8434+27.4314+89.4529+28.0879C87.6275+31.1577+84.1378+36.7088+85.5457+40.6548C86.4632+43.2263+89.6092+41.9806+91.1183+41.0138C93.873+39.2491+98.1245+31.156+100.47+28.0879C102.609+25.2904+106.448+21.8641+109.95+22.8458C111.145+23.1806+111.318+24.5795+111.936+25.5028C111.989+25.5829+112.125+26.402+112.32+26.2927C112.551+26.1632+112.032+24.9277+112+24.7847C111.599+22.9865+109.194+22.685+107.836+22.9894C102.645+24.1533+98.3524+37.5068+103.353+40.8702C106.33+42.8728+109.718+39.6281+111.551+37.2797C114.422+33.6023+121.528+21.0283+126.732+22.4867C127.299+22.6455+127.959+24.4256+128.013+24.4256C128.249+24.4256+127.805+23.1866+127.693+23.0612C126.801+22.0608+125.561+21.978+124.426+22.4867C121.024+24.0123+112.503+33.767+117.06+37.8542C119.237+39.8065+126.703+27.1933+128.013+25.431C128.767+24.4175+129.856+23.5258+130.383+22.3431C130.428+22.2423+130.882+21.5667+130.96+21.625C131.134+21.7556+129.152+26.344+128.91+26.7954C127.329+29.7502+123.797+39.1888+127.821+41.4447C129.819+42.5649+133.079+37.7764+134.226+36.6334C140.074+30.8063+145.283+23.6254+150.24+16.9573C151.235+15.6183+154.335+9.48593+152.097+7.98105C149.601+6.30209+146.89+11.5216+145.5+13.0796C142.092+16.8997+135.426+34.9562+139.094+40.4393C142.142+44.9946+148.57+36.4719+150.24+33.9764C150.996+32.8461+151.81+32.0171+152.29+30.6731C152.404+30.3515+152.988+28.9173+152.802+29.0215" fill="none" stroke-linecap="round" opacity="1" stroke-linejoin="round"/>
<path stroke="#000000" stroke-width="1" d="M162.827+41.7856C167.13+38.1672+170.805+32.733+174.183+28.1042C174.379+27.8352+177.177+23.5437+177.347+23.6071C178.157+23.9101+178.646+28.7334+178.646+29.6244C178.646+34.9755+180.239+41.2363+175.934+45.4593C173.056+48.2831+168.955+46.1095+169.437+41.7856C170.017+36.5806+174.991+33.7316+178.703+31.6512C185.615+27.7766+191.959+22.3138+198.025+17.0831C199.061+16.1893+206.23+8.62228+203.788+6.56868C201.071+4.28404+195.878+10.7715+194.692+12.586C191.151+17.9988+183.483+35.9184+187.177+42.5457C191.674+50.6122+200.939+39.9896+203.788+35.1983C204.96+33.2275+206.304+31.1422+207.686+29.371C208.113+28.8235+208.37+28.1573+208.703+27.5341C208.868+27.2258+209.325+26.3512+209.325+26.7107C209.325+28.8386+198.625+42.1787+205.031+44.5725C209.939+46.4069+217.885+32.2226+215.257+28.2942C210.648+21.4056+205.602+30.4028+208.195+32.728C210.799+35.064+214.256+32.688+216.33+30.8278C221.437+26.2479+225.644+20.9087+229.777+15.2462C230.937+13.6565+232.234+11.6997+233.054+9.86235C233.47+8.92934+234.692+7.32876+234.692+7.32876C234.692+7.32876+233.372+9.13152+232.941+10.179C232.052+12.3387+230.776+14.424+229.664+16.4497C226.168+22.8177+221.763+29.7555+221.189+37.4785C221.057+39.2578+220.26+42.3224+221.415+43.8758C224.199+47.6214+227.591+42.5737+229.607+40.5188C235.774+34.2336+242.279+26.221+246.783+18.2865C247.653+16.754+251.816+9.84049+249.495+8.27885C247.361+6.84366+244.367+13.8848+243.788+15.1829C240.993+21.45+239.473+28.6504+237.687+35.3249C237.1+37.5173+236.714+39.8133+236.218+42.0389C235.979+43.1076+235.596+45.2693+235.596+45.2693C235.596+45.2693+235.663+44.5383+235.766+44.1925C236.219+42.6671+236.724+41.1577+237.178+39.632C238.272+35.9514+241.85+26.7955+246.557+27.8508C247.805+28.1307+247.818+31.5882+247.63+32.538C247.057+35.4277+246.065+43.0636+248.873+44.9526C252.999+47.7282+259.116+35.1064+260.907+32.0946C261.132+31.7163+263.149+26.6763+263.619+27.0274C265.841+28.6884+266.179+30.6492+267.065+33.2981C267.686+35.1543+268.026+37.2597+268.026+39.252C268.026+51.544+256.157+49.743+261.02+40.2021C261.763+38.7455+262.401+37.8309+263.45+36.6551C264.559+35.4115+266.013+33.5947+267.517+32.9814C269.061+32.3521+270.402+31.291+271.981+30.7011C273.328+30.1977+275.126+30.3951+276.388+29.6877" fill="none" stroke-linecap="round" opacity="1" stroke-linejoin="round"/>
<path stroke="#000000" stroke-width="1" d="M17.4056+16.9918C15.4977+17.7048+17.4872+20.1893+18.6187+20.3162C21.5675+20.6467+25.1991+18.5464+27.9639+17.6466C33.5807+15.8184+39.4214+14.7127+45.1716+13.5666C47.3624+13.13+50.6297+13.2271+52.6297+12.1059" fill="none" stroke-linecap="round" opacity="1" stroke-linejoin="round"/>
<path stroke="#000000" stroke-width="1" d="M94.2733+18.1449C94.3611+18.3418+94.2887+18.281+94.516+18.281" fill="none" stroke-linecap="round" opacity="1" stroke-linejoin="round"/>
<path stroke="#000000" stroke-width="1" d="M216.225+13.3014C213.22+13.3014+215.606+17.1225+218.209+17.3049C226.511+17.8866+234.844+15.9148+243.107+15.9148" fill="none" stroke-linecap="round" opacity="1" stroke-linejoin="round"/>
</g>
</g>
</svg>
